<svg width="24" height="24" viewBox="0 0 24 24" fill="none" xmlns="http://www.w3.org/2000/svg">
<path fill-rule="evenodd" clip-rule="evenodd" d="M12.8938 0.649333C12.3056 0.514513 11.6946 0.514513 11.1064 0.649333C10.4376 0.802634 9.83465 1.18403 9.03468 1.69005L8.90295 1.77333L4.20295 4.74175L4.08807 4.81424C3.38311 5.25887 2.85119 5.59436 2.45427 6.06063C2.10479 6.47117 1.84191 6.94812 1.68142 7.46283C1.49916 8.0474 1.49954 8.67629 1.50005 9.50975L1.50011 9.64559V14.3544L1.50005 14.4902C1.49954 15.3237 1.49916 15.9525 1.68142 16.5371C1.84191 17.0518 2.10479 17.5288 2.45427 17.9393C2.8512 18.4056 3.38312 18.7411 4.08808 19.1857L4.20295 19.2582L8.90295 22.2266L9.03468 22.3099C9.83465 22.8159 10.4376 23.1973 11.1064 23.3506C11.6946 23.4854 12.3056 23.4854 12.8938 23.3506C13.5626 23.1973 14.1656 22.8159 14.9656 22.3099L15.0973 22.2266L19.7973 19.2582L19.9121 19.1857C20.6171 18.7411 21.149 18.4056 21.5459 17.9393C21.8954 17.5288 22.1583 17.0518 22.3188 16.5371C22.5011 15.9525 22.5007 15.3237 22.5002 14.4902L22.5001 14.3544V9.64559L22.5002 9.50975C22.5007 8.67629 22.5011 8.0474 22.3188 7.46283C22.1583 6.94812 21.8954 6.47117 21.5459 6.06063C21.149 5.59436 20.6171 5.25887 19.9122 4.81424L19.7973 4.74175L15.0973 1.77333L14.9655 1.69005C14.1656 1.18403 13.5626 0.802634 12.8938 0.649333ZM11.5533 2.59878C11.8473 2.53137 12.1529 2.53137 12.447 2.59878C12.7398 2.6659 13.0373 2.83776 14.0293 3.46431L18.7293 6.43273C19.6003 6.98285 19.849 7.15257 20.023 7.35705C20.1978 7.56232 20.3292 7.8008 20.4095 8.05815C20.4894 8.31452 20.5001 8.61539 20.5001 9.64559V14.3544C20.5001 15.3846 20.4894 15.6854 20.4095 15.9418C20.3292 16.1992 20.1978 16.4376 20.023 16.6429C19.849 16.8474 19.6003 17.0171 18.7293 17.5672L14.0293 20.5356C13.0373 21.1622 12.7398 21.334 12.447 21.4012C12.1529 21.4686 11.8473 21.4686 11.5533 21.4012C11.2604 21.334 10.963 21.1622 9.97093 20.5356L5.27093 17.5672C4.39991 17.0171 4.15126 16.8474 3.97719 16.6429C3.80245 16.4376 3.67101 16.1992 3.59077 15.9418C3.51083 15.6854 3.50011 15.3846 3.50011 14.3544V9.64559C3.50011 8.61539 3.51083 8.31452 3.59077 8.05815C3.67101 7.8008 3.80245 7.56232 3.97719 7.35705C4.15126 7.15257 4.39991 6.98284 5.27094 6.43273L9.97094 3.4643C10.963 2.83776 11.2604 2.6659 11.5533 2.59878ZM13.0001 6C13.0001 5.44772 12.5524 5 12.0001 5C11.4478 5 11.0001 5.44772 11.0001 6C11.0001 8.94772 8.94784 11 6.00012 11C5.44784 11 5.00012 11.4477 5.00012 12C5.00012 12.5523 5.44784 13 6.00012 13C8.94784 13 11.0001 15.0523 11.0001 18C11.0001 18.5523 11.4478 19 12.0001 19C12.5524 19 13.0001 18.5523 13.0001 18C13.0001 15.1054 15.4978 13 18.0001 13C18.5524 13 19.0001 12.5523 19.0001 12C19.0001 11.4477 18.5524 11 18.0001 11C15.4978 11 13.0001 8.89463 13.0001 6ZM9.76298 12C10.7158 11.4281 11.4988 10.6323 12.0558 9.66828C12.6673 10.6356 13.5049 11.4299 14.462 12C13.5049 12.5701 12.6673 13.3644 12.0558 14.3317C11.4988 13.3677 10.7158 12.5719 9.76298 12Z" fill="#A2A8B4"/>
</svg>
