<svg width="24" height="24" viewBox="0 0 24 24" fill="none" xmlns="http://www.w3.org/2000/svg">
<path fill-rule="evenodd" clip-rule="evenodd" d="M6.54995 5.74995C6.54995 4.39685 7.64685 3.29995 8.99995 3.29995C10.353 3.29995 11.45 4.39685 11.45 5.74995C11.45 7.10305 10.353 8.19995 8.99995 8.19995C7.64685 8.19995 6.54995 7.10305 6.54995 5.74995ZM8.99995 1.69995C6.7632 1.69995 4.94995 3.5132 4.94995 5.74995C4.94995 7.9867 6.7632 9.79995 8.99995 9.79995C11.2367 9.79995 13.05 7.9867 13.05 5.74995C13.05 3.5132 11.2367 1.69995 8.99995 1.69995ZM14.4332 8.41237C14.1883 8.91124 13.8767 9.37145 13.5101 9.7814C14.1508 10.4113 15.0295 10.8 15.999 10.8C17.9596 10.8 19.549 9.21056 19.549 7.24995C19.549 5.28934 17.9596 3.69995 15.999 3.69995C15.5659 3.69995 15.1509 3.77751 14.7671 3.9195C14.9308 4.43592 15.0271 4.98235 15.0457 5.54845C15.3275 5.3902 15.6527 5.29995 15.999 5.29995C17.0759 5.29995 17.949 6.173 17.949 7.24995C17.949 8.32691 17.0759 9.19995 15.999 9.19995C15.3576 9.19995 14.7886 8.89032 14.4332 8.41237ZM8.99995 12.4C6.05798 12.4 3.93733 13.2465 2.52091 14.3999C1.18485 15.4878 0.399947 16.9347 0.399947 18.125L0.399925 18.167C0.39974 18.416 0.399468 18.7798 0.451729 19.1292C0.511159 19.5266 0.654443 20.0409 1.04423 20.5086C1.82054 21.4402 3.05756 21.6 4.18745 21.6H13.8124C14.9423 21.6 16.1794 21.4402 16.9557 20.5086C17.3454 20.0409 17.4887 19.5266 17.5482 19.1292C17.6004 18.7798 17.6002 18.416 17.6 18.167V18.167L17.5999 18.125C17.5999 16.9347 16.815 15.4878 15.479 14.3999C14.0626 13.2465 11.9419 12.4 8.99995 12.4ZM1.99995 18.125C1.99995 17 3.74995 14 8.99995 14C14.2499 14 15.9999 17 15.9999 18.125C15.9999 19.25 15.9999 20 13.8124 20H4.18745C1.99995 20 1.99995 19.25 1.99995 18.125ZM18.7242 21.8H18.7332H18.7525H18.7717H18.7909H18.8099H18.829H18.8479H18.8668H18.8857H18.9045H18.9232H18.9418H18.9604H18.979H18.9974H19.0158H19.0341H19.0524H19.0706H19.0887H19.1068H19.1248H19.1427H19.1606H19.1783H19.196H19.2137H19.2313H19.2488H19.2662H19.2835H19.3008H19.318H19.3352H19.3522H19.3692H19.3861H19.4029H19.4197H19.4364H19.453H19.4695H19.486H19.5023H19.5186H19.5348H19.551H19.567H19.583H19.5989H19.6147H19.6304H19.646H19.6616H19.6771H19.6925H19.7078H19.723H19.7381H19.7532H19.7682H19.783H19.7978H19.8125H19.8272H19.8417H19.8561H19.8705H19.8847H19.8989H19.913H19.927H19.9409H19.9547H19.9684H19.982H19.9955H20.009H20.0223H20.0355H20.0487H20.0617H20.0747H20.0875H20.1003H20.113H20.1255H20.138H20.1504H20.1626H20.1748H20.1869H20.1988H20.2107H20.2225H20.2341H20.2457H20.2571H20.2685H20.2797H20.2909H20.3019H20.3129H20.3237H20.3344H20.345H20.3555H20.3659H20.3762H20.3864H20.3965H20.4065H20.4163H20.4261H20.4357H20.4452H20.4546H20.4639H20.4731H20.4822H20.4911H20.5C21.4318 21.8 22.2704 21.4859 22.8782 20.8781C23.4859 20.2704 23.8 19.4318 23.8 18.5C23.8 16.8755 22.156 13.734 17.2856 13.2604C17.9001 13.8597 18.3988 14.5066 18.7851 15.1618C21.5418 15.9747 22.2 17.9196 22.2 18.5C22.2 19.0682 22.0141 19.4795 21.7468 19.7468C21.4795 20.014 21.0682 20.2 20.5 20.2H20.4911H20.4822H20.4731H20.4639H20.4546H20.4452H20.4357H20.4261H20.4163H20.4065H20.3965H20.3864H20.3762H20.3659H20.3555H20.345H20.3344H20.3237H20.3129H20.3019H20.2909H20.2797H20.2685H20.2571H20.2457H20.2341H20.2225H20.2107H20.1988H20.1869H20.1748H20.1626H20.1504H20.138H20.1255H20.113H20.1003H20.0875H20.0747H20.0617H20.0487H20.0355H20.0223H20.009H19.9955H19.982H19.9684H19.9547H19.9409H19.927H19.913H19.8989H19.8847H19.8705H19.8561H19.8417H19.8272H19.8125H19.7978H19.783H19.7682H19.7532H19.7381H19.723H19.7078H19.6925H19.6771H19.6616H19.646H19.6304H19.6147H19.5989H19.583H19.567H19.551H19.5475C19.3706 20.7699 19.0984 21.312 18.7242 21.8Z" fill="#A2A8B4"/>
</svg>
