<svg width="24" height="24" viewBox="0 0 24 24" fill="none" xmlns="http://www.w3.org/2000/svg">
<g clip-path="url(#clip0_13317_101759)">
<path fill-rule="evenodd" clip-rule="evenodd" d="M11.9996 0.6C12.3065 0.6 12.5922 0.756372 12.7577 1.01485L20.0407 12.3946C20.0763 12.4339 20.1089 12.4767 20.1378 12.523L20.7628 13.523C20.9795 13.8698 20.9353 14.3191 20.655 14.6168L12.655 23.1168C12.4849 23.2975 12.2478 23.4 11.9996 23.4C11.7515 23.4 11.5143 23.2975 11.3442 23.1168L3.34424 14.6168C3.06398 14.3191 3.0197 13.8698 3.23642 13.523L3.86142 12.523C3.89035 12.4767 3.9229 12.4339 3.95851 12.3946L11.2416 1.01485C11.407 0.756372 11.6927 0.6 11.9996 0.6ZM5.57124 14.3567L11.0996 20.2306V16.6055L5.57124 14.3567ZM11.0996 14.6623L5.97773 12.5788L11.0996 4.57584V14.6623ZM12.8996 16.6055V20.2306L18.428 14.3567L12.8996 16.6055ZM18.0215 12.5788L12.8996 14.6623V4.57584L18.0215 12.5788Z" fill="#A2A8B4"/>
</g>
<defs>
<clipPath id="clip0_13317_101759">
<rect width="24" height="24" fill="white"/>
</clipPath>
</defs>
</svg>
