<svg width="40" height="40" viewBox="0 0 40 40" fill="none" xmlns="http://www.w3.org/2000/svg">
<g opacity="0.7" clip-path="url(#clip0_13286_7586)">
<path fill-rule="evenodd" clip-rule="evenodd" d="M12.7731 7.86386L13.6969 6.8246L13.6969 6.82459C14.4467 5.98113 14.8215 5.5594 15.2726 5.2568C15.6723 4.98862 16.1146 4.79002 16.5806 4.66941C17.1064 4.53333 17.6707 4.53333 18.7992 4.53333H21.2013C22.3298 4.53333 22.8941 4.53333 23.4199 4.66941C23.8859 4.79002 24.3282 4.98862 24.7279 5.2568C25.179 5.5594 25.5539 5.98113 26.3036 6.82459L26.3036 6.8246L27.2274 7.86386C27.26 7.90053 27.2763 7.91886 27.2921 7.93628C28.0898 8.81392 29.2167 9.31999 30.4025 9.33307C30.4261 9.33333 30.4506 9.33333 30.4997 9.33333C30.655 9.33333 30.7326 9.33333 30.7983 9.33467C34.23 9.40512 36.9951 12.1702 37.0656 15.602C37.0669 15.6676 37.0669 15.7453 37.0669 15.9006V24.6933C37.0669 28.2777 37.0669 30.0698 36.3694 31.4389C35.7558 32.6431 34.7767 33.6222 33.5725 34.2358C32.2034 34.9333 30.4113 34.9333 26.8269 34.9333H13.1736C9.58926 34.9333 7.79709 34.9333 6.42805 34.2358C5.22382 33.6222 4.24474 32.6431 3.63115 31.4389C2.93359 30.0698 2.93359 28.2777 2.93359 24.6933V15.9006C2.93359 15.7453 2.93359 15.6676 2.93494 15.602C3.00539 12.1702 5.77051 9.40512 9.20225 9.33467C9.26791 9.33333 9.34556 9.33333 9.50084 9.33333C9.54991 9.33333 9.57444 9.33333 9.59797 9.33307C10.7838 9.31999 11.9108 8.81392 12.7084 7.93628C12.7242 7.91893 12.7404 7.90067 12.7727 7.86428L12.7728 7.86425L12.7731 7.86386ZM14.6669 21.0667C14.6669 18.1211 17.0547 15.7333 20.0003 15.7333C22.9458 15.7333 25.3336 18.1211 25.3336 21.0667C25.3336 24.0122 22.9458 26.4 20.0003 26.4C17.0547 26.4 14.6669 24.0122 14.6669 21.0667ZM20.0003 13.6C15.8765 13.6 12.5336 16.9429 12.5336 21.0667C12.5336 25.1904 15.8765 28.5333 20.0003 28.5333C24.124 28.5333 27.4669 25.1904 27.4669 21.0667C27.4669 16.9429 24.124 13.6 20.0003 13.6Z" fill="white"/>
</g>
<defs>
<clipPath id="clip0_13286_7586">
<rect width="38.4" height="38.4" fill="white" transform="translate(0.799805 0.799988)"/>
</clipPath>
</defs>
</svg>
