<svg width="24" height="24" viewBox="0 0 24 24" fill="none" xmlns="http://www.w3.org/2000/svg">
<g clip-path="url(#clip0_13216_28740)">
<path fill-rule="evenodd" clip-rule="evenodd" d="M19.2 3.44339L13.5913 6.94878C13.5737 6.9598 13.5563 6.97068 13.5391 6.98141C13.155 7.22164 12.884 7.39111 12.5879 7.51317C12.3259 7.62115 12.0527 7.6995 11.7734 7.74676C11.4576 7.80018 11.138 7.80011 10.6849 7.8C10.6646 7.8 10.6441 7.79999 10.6233 7.79999H5.99995C4.00588 7.79999 2.79995 9.37487 2.79995 11C2.79995 12.6251 4.00588 14.2 5.99995 14.2C6.44178 14.2 6.79995 14.5582 6.79995 15V20C6.79995 20.6627 7.33721 21.2 7.99995 21.2C8.66269 21.2 9.19995 20.6627 9.19995 20V15C9.19995 14.5582 9.55812 14.2 9.99995 14.2H10.6233C10.6441 14.2 10.6646 14.2 10.6849 14.2C11.138 14.1999 11.4576 14.1998 11.7734 14.2532C12.0527 14.3005 12.3259 14.3788 12.5879 14.4868C12.884 14.6089 13.155 14.7783 13.5391 15.0186C13.5563 15.0293 13.5737 15.0402 13.5913 15.0512L19.2 18.5566V3.44339ZM18.8857 1.77147C19.0412 1.69305 19.2961 1.58153 19.6041 1.6063C19.9777 1.63633 20.3201 1.82612 20.5436 2.12699C20.7278 2.37508 20.7684 2.65033 20.7843 2.82374C20.8 2.99535 20.8 3.20415 20.8 3.41405V18.5859C20.8 18.7958 20.8 19.0046 20.7843 19.1762C20.7684 19.3497 20.7278 19.6249 20.5436 19.873C20.3201 20.1739 19.9777 20.3637 19.6041 20.3937C19.2961 20.4185 19.0412 20.3069 18.8857 20.2285C18.7319 20.1509 18.5548 20.0402 18.3769 19.929L12.7433 16.408C12.287 16.1228 12.1346 16.0306 11.9781 15.966C11.8264 15.9035 11.6682 15.8582 11.5065 15.8308C11.3593 15.8059 11.2035 15.801 10.8 15.8001V20C10.8 21.5464 9.54635 22.8 7.99995 22.8C6.45355 22.8 5.19995 21.5464 5.19995 20V15.7401C2.67848 15.3533 1.19995 13.1559 1.19995 11C1.19995 8.62511 2.99402 6.19999 5.99995 6.19999H10.6233C11.1615 6.19999 11.3395 6.19742 11.5065 6.16917C11.6682 6.14181 11.8264 6.09645 11.9781 6.03394C12.1346 5.9694 12.287 5.87722 12.7433 5.59199L18.3768 2.07105C18.5548 1.95977 18.7318 1.84908 18.8857 1.77147Z" fill="#A2A8B4"/>
</g>
<defs>
<clipPath id="clip0_13216_28740">
<rect width="24" height="24" fill="white"/>
</clipPath>
</defs>
</svg>
