<svg width="24" height="24" viewBox="0 0 24 24" fill="none" xmlns="http://www.w3.org/2000/svg">
<g clip-path="url(#clip0_13262_64108)">
<path fill-rule="evenodd" clip-rule="evenodd" d="M19.2 3.44363L13.5913 6.94903C13.5737 6.96005 13.5563 6.97092 13.5391 6.98166C13.155 7.22189 12.884 7.39135 12.5879 7.51342C12.3259 7.6214 12.0527 7.69975 11.7734 7.747C11.4576 7.80042 11.138 7.80035 10.6849 7.80025C10.6646 7.80024 10.6441 7.80024 10.6233 7.80024H5.99995C4.00588 7.80024 2.79995 9.37512 2.79995 11.0002C2.79995 12.6254 4.00588 14.2002 5.99995 14.2002C6.44178 14.2002 6.79995 14.5584 6.79995 15.0002V20.0002C6.79995 20.663 7.33721 21.2002 7.99995 21.2002C8.66269 21.2002 9.19995 20.663 9.19995 20.0002V15.0002C9.19995 14.5584 9.55812 14.2002 9.99995 14.2002H10.6233C10.6441 14.2002 10.6646 14.2002 10.6849 14.2002C11.138 14.2001 11.4576 14.2001 11.7734 14.2535C12.0527 14.3007 12.3259 14.3791 12.5879 14.4871C12.884 14.6091 13.155 14.7786 13.5391 15.0188C13.5563 15.0296 13.5737 15.0404 13.5913 15.0514L19.2 18.5568V3.44363ZM18.8857 1.77171C19.0412 1.69329 19.2961 1.58178 19.6041 1.60654C19.9777 1.63657 20.3201 1.82637 20.5436 2.12724C20.7278 2.37533 20.7684 2.65057 20.7843 2.82399C20.8 2.9956 20.8 3.20439 20.8 3.41429V18.5862C20.8 18.7961 20.8 19.0049 20.7843 19.1765C20.7684 19.3499 20.7278 19.6251 20.5436 19.8732C20.3201 20.1741 19.9777 20.3639 19.6041 20.3939C19.2961 20.4187 19.0412 20.3072 18.8857 20.2288C18.7319 20.1512 18.5548 20.0405 18.3769 19.9292L12.7433 16.4082C12.287 16.123 12.1346 16.0308 11.9781 15.9663C11.8264 15.9038 11.6682 15.8584 11.5065 15.8311C11.3593 15.8062 11.2035 15.8012 10.8 15.8004V20.0002C10.8 21.5466 9.54635 22.8002 7.99995 22.8002C6.45355 22.8002 5.19995 21.5466 5.19995 20.0002V15.7403C2.67848 15.3535 1.19995 13.1562 1.19995 11.0002C1.19995 8.62536 2.99402 6.20024 5.99995 6.20024H10.6233C11.1615 6.20024 11.3395 6.19766 11.5065 6.16942C11.6682 6.14206 11.8264 6.0967 11.9781 6.03418C12.1346 5.96964 12.287 5.87746 12.7433 5.59223L18.3768 2.0713C18.5548 1.96002 18.7318 1.84932 18.8857 1.77171Z" fill="#FC7900"/>
</g>
<defs>
<clipPath id="clip0_13262_64108">
<rect width="24" height="24" fill="white"/>
</clipPath>
</defs>
</svg>
