<svg width="20" height="20" viewBox="0 0 20 20" fill="none" xmlns="http://www.w3.org/2000/svg">
<path fill-rule="evenodd" clip-rule="evenodd" d="M10.6349 2.23623C10.4928 2.01118 10.2482 1.87527 9.98565 1.8755C9.72312 1.87574 9.47873 2.01209 9.33701 2.2374L5.12303 8.93666C4.99926 9.13343 4.96776 9.37613 5.03707 9.59895C5.10638 9.82177 5.26932 10.0016 5.4817 10.0897L9.69568 11.8373C9.88261 11.9148 10.0919 11.9146 10.2786 11.8366L14.4998 10.0744C14.7119 9.98588 14.8744 9.80575 14.9432 9.58286C15.0121 9.35997 14.9801 9.11741 14.856 8.92093L10.6349 2.23623ZM14.8091 12.9037C15.0435 12.6302 15.0637 12.2288 14.858 11.9323C14.6524 11.6358 14.2744 11.5214 13.9434 11.6555L9.98709 13.258L6.07328 11.6565C5.74295 11.5213 5.36479 11.6341 5.15805 11.9295C4.9513 12.2249 4.96966 12.6262 5.20247 12.9007L9.40216 17.8524C9.54824 18.0246 9.76037 18.1238 9.9837 18.1244C10.207 18.125 10.4197 18.0268 10.5666 17.8553L14.8091 12.9037Z" fill="#A2A8B4"/>
</svg>
