<svg width="16" height="16" viewBox="0 0 16 16" fill="none" xmlns="http://www.w3.org/2000/svg">
<g id="Sidebar/16/Outline/expand-16">
<path id="Shape" fill-rule="evenodd" clip-rule="evenodd" d="M11.0119 6.06944C11.3264 6.33901 11.7999 6.30259 12.0695 5.98809C12.339 5.6736 12.3026 5.20012 11.9881 4.93056L8.48811 1.93056C8.20724 1.68981 7.79279 1.68981 7.51192 1.93056L4.01192 4.93056C3.69743 5.20012 3.661 5.6736 3.93057 5.98809C4.20014 6.30259 4.67361 6.33901 4.98811 6.06944L8.00001 3.48781L11.0119 6.06944ZM4.98813 9.93059C4.67364 9.66102 4.20017 9.69744 3.9306 10.0119C3.66103 10.3264 3.69745 10.7999 4.01195 11.0695L7.51195 14.0695C7.79281 14.3102 8.20727 14.3102 8.48813 14.0695L11.9881 11.0695C12.3026 10.7999 12.339 10.3264 12.0695 10.0119C11.7999 9.69744 11.3264 9.66102 11.0119 9.93059L8.00004 12.5122L4.98813 9.93059Z" fill="#717A8C"/>
</g>
</svg>
