<svg width="22" height="22" viewBox="0 0 22 22" fill="none" xmlns="http://www.w3.org/2000/svg">
<path id="Shape" fill-rule="evenodd" clip-rule="evenodd" d="M2.46465 8.29918C2.19525 9.15137 2.04995 10.0587 2.04995 11C2.04995 11.9412 2.19525 12.8485 2.46465 13.7007C2.47636 13.7002 2.48812 13.7 2.49995 13.7H6.36702C6.26198 12.8637 6.19995 11.9624 6.19995 10.9999C6.19995 10.0374 6.26197 9.13617 6.36702 8.29995H2.49995C2.48812 8.29995 2.47636 8.29969 2.46465 8.29918ZM3.14868 15.3H6.63204C6.87293 16.4653 7.1874 17.4659 7.50327 18.2871C7.66934 18.7189 7.83584 19.1012 7.9923 19.432C5.9172 18.6918 4.19553 17.2073 3.14868 15.3ZM9.80865 19.4708C9.91512 19.6624 10.0029 19.8066 10.0631 19.9015C10.371 19.9335 10.6836 19.95 11 19.95C11.3164 19.95 11.6289 19.9335 11.9369 19.9015C11.9971 19.8066 12.0849 19.6624 12.1913 19.4708C12.4095 19.0781 12.7056 18.4869 13.0034 17.7128C13.2613 17.0422 13.5203 16.2347 13.7311 15.3H8.26889C8.47968 16.2347 8.73872 17.0422 8.99663 17.7128C9.29438 18.4869 9.59048 19.0781 9.80865 19.4708ZM15.368 15.3C15.1271 16.4653 14.8126 17.4659 14.4967 18.2871C14.3307 18.7189 14.1642 19.1012 14.0077 19.432C16.0828 18.6918 17.8044 17.2073 18.8512 15.3H15.368ZM15.633 13.7C15.738 12.8637 15.8 11.9624 15.8 10.9999C15.8 10.0374 15.738 9.13617 15.633 8.29995H19.5C19.5118 8.29995 19.5235 8.29969 19.5352 8.29918C19.8046 9.15137 19.95 10.0587 19.95 11C19.95 11.9412 19.8046 12.8485 19.5352 13.7007C19.5235 13.7002 19.5118 13.7 19.5 13.7H15.633ZM14.0193 8.29995C14.1321 9.12803 14.2 10.0295 14.2 10.9999C14.2 11.9703 14.1321 12.8719 14.0193 13.7H7.98066C7.86787 12.8719 7.79995 11.9703 7.79995 10.9999C7.79995 10.0295 7.86787 9.12803 7.98066 8.29995H14.0193ZM15.368 6.69995H18.8512C17.8044 4.79262 16.0828 3.30815 14.0077 2.5679C14.1642 2.8987 14.3307 3.28101 14.4967 3.71276C14.8126 4.53403 15.1271 5.53464 15.368 6.69995ZM11.9369 2.09841C11.9971 2.19329 12.0849 2.33746 12.1913 2.52908C12.4095 2.92179 12.7056 3.51298 13.0034 4.28712C13.2613 4.95769 13.5203 5.76522 13.7311 6.69995H8.26889C8.47968 5.76522 8.73872 4.95769 8.99663 4.28712C9.29438 3.51298 9.59048 2.92179 9.80865 2.52908C9.91511 2.33745 10.0029 2.19328 10.0631 2.0984C10.371 2.06637 10.6836 2.04995 11 2.04995C11.3164 2.04995 11.629 2.06637 11.9369 2.09841ZM3.14868 6.69995C4.19553 4.79259 5.9172 3.30809 7.99229 2.56786C7.83583 2.89867 7.66934 3.28099 7.50327 3.71276C7.1874 4.53403 6.87292 5.53464 6.63203 6.69995H3.14868ZM0.449951 11C0.449951 5.17335 5.17335 0.449951 11 0.449951C16.8266 0.449951 21.5499 5.17335 21.5499 11C21.5499 16.8266 16.8266 21.5499 11 21.5499C5.17335 21.5499 0.449951 16.8266 0.449951 11Z" fill="#A2A8B4"/>
</svg>
