<svg width="24" height="24" viewBox="0 0 24 24" fill="none" xmlns="http://www.w3.org/2000/svg">
<g clip-path="url(#clip0_13216_28844)">
<path fill-rule="evenodd" clip-rule="evenodd" d="M5.08998 18.2786C2.088 14.8461 2.06542 9.71508 5.02224 6.25705L7.43829 8.67309C5.79466 10.7864 5.81622 13.7753 7.50297 15.8656L5.08998 18.2786ZM6.24288 19.3884C9.6699 22.1612 14.6249 22.1077 17.993 19.2279L15.5769 16.8118C13.5577 18.3822 10.7392 18.4324 8.66883 16.9625L6.24288 19.3884ZM19.1813 6.45017C21.9233 9.83919 21.9013 14.7225 19.1154 18.0876L16.694 15.6662C18.1766 13.6563 18.1971 10.9063 16.7555 8.87591L19.1813 6.45017ZM18.0714 5.29726L15.6587 7.71002C13.6069 6.05433 10.6894 6.00299 8.58395 7.55601L6.16255 5.13461C9.61862 2.27344 14.6761 2.32765 18.0714 5.29726ZM4.38468 4.59188C0.167016 8.80955 0.167016 15.6477 4.38468 19.8654C8.60234 24.0831 15.4405 24.0831 19.6582 19.8654C23.8758 15.6477 23.8758 8.80955 19.6582 4.59189C15.4405 0.374223 8.60234 0.374222 4.38468 4.59188ZM9.05168 15.1984C7.41148 13.5582 7.41148 10.8989 9.05168 9.25867C10.6919 7.61846 13.3512 7.61847 14.9914 9.25867C16.6316 10.8989 16.6316 13.5582 14.9914 15.1984C13.3512 16.8386 10.6919 16.8386 9.05168 15.1984Z" fill="#A2A8B4"/>
</g>
<defs>
<clipPath id="clip0_13216_28844">
<rect width="24" height="24" fill="white"/>
</clipPath>
</defs>
</svg>
