<svg width="24" height="24" viewBox="0 0 24 24" fill="none" xmlns="http://www.w3.org/2000/svg">
<g clip-path="url(#clip0_13336_7696)">
<path fill-rule="evenodd" clip-rule="evenodd" d="M9.04995 5.24995C9.04995 3.62071 10.3707 2.29995 12 2.29995C13.6292 2.29995 14.95 3.62071 14.95 5.24995C14.95 6.87919 13.6292 8.19995 12 8.19995C10.3707 8.19995 9.04995 6.87919 9.04995 5.24995ZM12 0.699951C9.48706 0.699951 7.44995 2.73706 7.44995 5.24995C7.44995 7.76285 9.48706 9.79995 12 9.79995C14.5128 9.79995 16.55 7.76285 16.55 5.24995C16.55 2.73706 14.5128 0.699951 12 0.699951ZM1.69995 18.5C1.69995 16.4219 4.20794 12.2 12 12.2C12.4418 12.2 12.8 12.5581 12.8 13C12.8 13.4418 12.4418 13.8 12 13.8C4.79197 13.8 3.29995 17.578 3.29995 18.5C3.29995 19.0682 3.48586 19.4795 3.75314 19.7468C4.02041 20.014 4.43175 20.2 4.99995 20.2H10.5C10.9418 20.2 11.3 20.5581 11.3 21C11.3 21.4418 10.9418 21.8 10.5 21.8H4.99995C4.06815 21.8 3.22949 21.4859 2.62177 20.8781C2.01404 20.2704 1.69995 19.4317 1.69995 18.5ZM23.5656 13.9343C23.8781 14.2467 23.8781 14.7532 23.5656 15.0656L18.0656 20.5656C17.7532 20.8781 17.2467 20.8781 16.9343 20.5656L14.4343 18.0656C14.1218 17.7532 14.1218 17.2467 14.4343 16.9343C14.7467 16.6218 15.2532 16.6218 15.5656 16.9343L17.5 18.8686L22.4343 13.9343C22.7467 13.6218 23.2532 13.6218 23.5656 13.9343Z" fill="#FC7900"/>
</g>
<defs>
<clipPath id="clip0_13336_7696">
<rect width="24" height="24" fill="white"/>
</clipPath>
</defs>
</svg>
