<svg width="28" height="28" viewBox="0 0 28 28" fill="none" xmlns="http://www.w3.org/2000/svg">
<path d="M8.58335 15.6666C9.50383 15.6666 10.25 14.9205 10.25 14C10.25 13.0795 9.50383 12.3333 8.58335 12.3333C7.66288 12.3333 6.91669 13.0795 6.91669 14C6.91669 14.9205 7.66288 15.6666 8.58335 15.6666Z" fill="#717A8C"/>
<path d="M15.6667 14C15.6667 14.9205 14.9205 15.6666 14 15.6666C13.0795 15.6666 12.3334 14.9205 12.3334 14C12.3334 13.0795 13.0795 12.3333 14 12.3333C14.9205 12.3333 15.6667 13.0795 15.6667 14Z" fill="#717A8C"/>
<path d="M21.0834 14C21.0834 14.9205 20.3372 15.6666 19.4167 15.6666C18.4962 15.6666 17.75 14.9205 17.75 14C17.75 13.0795 18.4962 12.3333 19.4167 12.3333C20.3372 12.3333 21.0834 13.0795 21.0834 14Z" fill="#717A8C"/>
</svg>
