<svg width="20" height="20" viewBox="0 0 20 20" fill="none" xmlns="http://www.w3.org/2000/svg">
<g clip-path="url(#clip0_13222_40074)">
<path d="M14.3839 7.08399C14.0724 6.90597 13.6718 6.90597 13.3158 7.08399L10.8235 8.55265L9.13235 9.48725L6.68459 10.9559C6.37306 11.1339 5.97252 11.1339 5.61648 10.9559L3.70278 9.79878C3.39124 9.62076 3.16872 9.26472 3.16872 8.86418V6.63894C3.16872 6.2829 3.34674 5.92687 3.70278 5.70434L5.61648 4.59172C5.92801 4.4137 6.32856 4.4137 6.68459 4.59172L8.5983 5.74885C8.90983 5.92687 9.13235 6.2829 9.13235 6.68345V8.1521L10.8235 7.173V5.65984C10.8235 5.3038 10.6455 4.94776 10.2895 4.72524L6.7291 2.63351C6.41756 2.4555 6.01702 2.4555 5.66098 2.63351L2.0116 4.76974C1.65556 4.94776 1.47754 5.3038 1.47754 5.65984V9.84328C1.47754 10.1993 1.65556 10.5554 2.0116 10.7779L5.61648 12.8696C5.92801 13.0476 6.32856 13.0476 6.68459 12.8696L9.13235 11.4455L10.8235 10.4663L13.2713 9.0422C13.5828 8.86418 13.9834 8.86418 14.3394 9.0422L16.2531 10.1548C16.5646 10.3328 16.7872 10.6889 16.7872 11.0894V13.3147C16.7872 13.6707 16.6091 14.0267 16.2531 14.2493L14.3839 15.3619C14.0724 15.5399 13.6718 15.5399 13.3158 15.3619L11.4021 14.2493C11.0906 14.0712 10.868 13.7152 10.868 13.3147V11.8905L9.17686 12.8696V14.3383C9.17686 14.6943 9.35488 15.0503 9.71092 15.2729L13.3158 17.3646C13.6273 17.5426 14.0279 17.5426 14.3839 17.3646L17.9888 15.2729C18.3003 15.0948 18.5229 14.7388 18.5229 14.3383V10.1103C18.5229 9.75427 18.3448 9.39824 17.9888 9.17571L14.3839 7.08399Z" fill="#A2A8B4"/>
</g>
<defs>
<clipPath id="clip0_13222_40074">
<rect width="20" height="20" fill="white"/>
</clipPath>
</defs>
</svg>
