<svg width="24" height="24" viewBox="0 0 24 24" fill="none" xmlns="http://www.w3.org/2000/svg">
<g clip-path="url(#clip0_13216_28762)">
<path fill-rule="evenodd" clip-rule="evenodd" d="M11.9733 0.199951H12.0266C12.4699 0.199943 12.8424 0.199936 13.1487 0.220838C13.4684 0.242647 13.774 0.289862 14.0715 0.413089C14.7575 0.697272 15.3026 1.24236 15.5868 1.92844C15.71 2.22594 15.7573 2.53154 15.7791 2.85118C15.8 3.15753 15.8 3.53005 15.8 3.97331V4.19995L17.8321 4.19995C18.3648 4.19994 18.8124 4.19993 19.1787 4.22986C19.5617 4.26115 19.9256 4.3291 20.2711 4.50513C20.798 4.77358 21.2263 5.20192 21.4948 5.72878C21.6708 6.07426 21.7388 6.43823 21.77 6.82121C21.8 7.18749 21.8 7.63509 21.8 8.16775V17.8322C21.8 18.3648 21.8 18.8124 21.77 19.1787C21.7388 19.5617 21.6708 19.9256 21.4948 20.2711C21.2263 20.798 20.798 21.2263 20.2711 21.4948C19.9256 21.6708 19.5617 21.7388 19.1787 21.77C18.8124 21.8 18.3648 21.8 17.8322 21.8H6.16775C5.63509 21.8 5.18749 21.8 4.82121 21.77C4.43823 21.7388 4.07426 21.6708 3.72878 21.4948C3.20192 21.2263 2.77358 20.798 2.50513 20.2711C2.3291 19.9256 2.26115 19.5617 2.22986 19.1787C2.19993 18.8124 2.19994 18.3648 2.19995 17.8321V12.1678C2.19994 11.6351 2.19993 11.1875 2.22986 10.8212C2.26115 10.4382 2.3291 10.0743 2.50513 9.72878C2.77358 9.20193 3.20192 8.77358 3.72878 8.50513C4.07426 8.3291 4.43823 8.26115 4.82121 8.22986C5.18751 8.19993 5.63514 8.19994 6.16784 8.19995L8.19995 8.19995V3.97331C8.19994 3.53005 8.19994 3.15753 8.22084 2.85118C8.24265 2.53154 8.28986 2.22594 8.41309 1.92844C8.69727 1.24236 9.24236 0.697272 9.92844 0.413089C10.2259 0.289862 10.5315 0.242647 10.8512 0.220838C11.1575 0.199936 11.53 0.199943 11.9733 0.199951ZM8.19995 9.79995H6.19995C5.6267 9.79995 5.24487 9.80057 4.9515 9.82454C4.66747 9.84775 4.5375 9.88879 4.45516 9.93074C4.22937 10.0458 4.04579 10.2294 3.93074 10.4552C3.88879 10.5375 3.84775 10.6675 3.82454 10.9515C3.80057 11.2449 3.79995 11.6267 3.79995 12.2V17.8C3.79995 18.3732 3.80057 18.755 3.82454 19.0484C3.84775 19.3324 3.88879 19.4624 3.93074 19.5447C4.04579 19.7705 4.22937 19.9541 4.45516 20.0692C4.5375 20.1111 4.66747 20.1522 4.9515 20.1754C5.24487 20.1993 5.6267 20.2 6.19995 20.2H8.19995V9.79995ZM9.79995 20.2H14.2V3.99995C14.2 3.52306 14.1995 3.20546 14.1828 2.9601C14.1665 2.72192 14.1376 2.61078 14.1086 2.54073C13.9868 2.2467 13.7532 2.01309 13.4592 1.8913C13.3891 1.86228 13.278 1.83338 13.0398 1.81713C12.7944 1.80039 12.4768 1.79995 12 1.79995C11.5231 1.79995 11.2055 1.80039 10.9601 1.81713C10.7219 1.83338 10.6108 1.86228 10.5407 1.8913C10.2467 2.01309 10.0131 2.2467 9.8913 2.54073C9.86228 2.61078 9.83338 2.72192 9.81713 2.9601C9.80039 3.20546 9.79995 3.52306 9.79995 3.99995V20.2ZM15.8 20.2H17.8C18.3732 20.2 18.755 20.1993 19.0484 20.1754C19.3324 20.1522 19.4624 20.1111 19.5447 20.0692C19.7705 19.9541 19.9541 19.7705 20.0692 19.5447C20.1111 19.4624 20.1522 19.3324 20.1754 19.0484C20.1993 18.755 20.2 18.3732 20.2 17.8V8.19995C20.2 7.6267 20.1993 7.24487 20.1754 6.9515C20.1522 6.66747 20.1111 6.5375 20.0692 6.45516C19.9541 6.22937 19.7705 6.04579 19.5447 5.93074C19.4624 5.88879 19.3324 5.84775 19.0484 5.82454C18.755 5.80057 18.3732 5.79995 17.8 5.79995H15.8V20.2Z" fill="#A2A8B4"/>
</g>
<defs>
<clipPath id="clip0_13216_28762">
<rect width="24" height="24" fill="white"/>
</clipPath>
</defs>
</svg>
