<svg width="20" height="20" viewBox="0 0 20 20" fill="none" xmlns="http://www.w3.org/2000/svg">
<g clip-path="url(#clip0_8303_452677)">
<path fill-rule="evenodd" clip-rule="evenodd" d="M9.41058 1.9107C9.73602 1.58527 10.2637 1.58527 10.5891 1.9107L14.7558 6.07737C15.0812 6.40281 15.0812 6.93044 14.7558 7.25588C14.4303 7.58132 13.9027 7.58132 13.5772 7.25588L10.8332 4.5118V12.5C10.8332 12.9602 10.4601 13.3333 9.99984 13.3333C9.5396 13.3333 9.1665 12.9602 9.1665 12.5V4.5118L6.42243 7.25588C6.09699 7.58132 5.56935 7.58132 5.24392 7.25588C4.91848 6.93044 4.91848 6.40281 5.24392 6.07737L9.41058 1.9107ZM2.49984 11.6666C2.96008 11.6666 3.33317 12.0397 3.33317 12.5V13.5C3.33317 14.2138 3.33382 14.699 3.36446 15.0741C3.39431 15.4394 3.44842 15.6263 3.51483 15.7566C3.67462 16.0702 3.92958 16.3252 4.24319 16.485C4.37352 16.5514 4.56036 16.6055 4.9257 16.6353C5.30078 16.666 5.78602 16.6666 6.49984 16.6666H13.4998C14.2137 16.6666 14.6989 16.666 15.074 16.6353C15.4393 16.6055 15.6262 16.5514 15.7565 16.485C16.0701 16.3252 16.3251 16.0702 16.4848 15.7566C16.5513 15.6263 16.6054 15.4394 16.6352 15.0741C16.6659 14.699 16.6665 14.2138 16.6665 13.5V12.5C16.6665 12.0397 17.0396 11.6666 17.4998 11.6666C17.9601 11.6666 18.3332 12.0397 18.3332 12.5V13.5344C18.3332 14.2052 18.3332 14.7588 18.2963 15.2098C18.2581 15.6782 18.1759 16.1088 17.9699 16.5133C17.6503 17.1405 17.1403 17.6504 16.5131 17.97C16.1087 18.1761 15.6781 18.2582 15.2097 18.2965C14.7587 18.3333 14.2051 18.3333 13.5343 18.3333H6.4654C5.7946 18.3333 5.24097 18.3333 4.78998 18.2965C4.32157 18.2582 3.89098 18.1761 3.48654 17.97C2.85933 17.6504 2.34939 17.1405 2.02982 16.5133C1.82374 16.1088 1.7416 15.6782 1.70333 15.2098C1.66648 14.7588 1.66649 14.2052 1.6665 13.5344L1.6665 12.5C1.6665 12.0397 2.0396 11.6666 2.49984 11.6666Z" fill="#A2A8B4"/>
</g>
<defs>
<clipPath id="clip0_8303_452677">
<rect width="20" height="20" fill="white"/>
</clipPath>
</defs>
</svg>
