<svg width="186" height="48" viewBox="0 0 186 48" fill="none" xmlns="http://www.w3.org/2000/svg">
<path d="M64.6175 18.3164C68.5563 18.3164 71.2117 19.8939 71.2117 22.9824V23.7156H67.6712V22.9824C67.6712 21.7381 66.5205 21.116 64.6175 21.116H64.2191C62.2719 21.116 61.1654 21.6937 61.1654 22.538V22.7602C61.1654 23.7822 62.0506 24.0711 65.6354 24.671C69.6848 25.4042 71.4772 26.604 71.4772 29.1148V29.337C71.4772 31.8477 69.2201 33.6474 64.6838 33.6474H64.2634C59.6828 33.6474 57.3594 31.8255 57.3594 28.737V28.0483H60.8999V28.737C60.8999 30.3146 62.117 30.8256 64.2855 30.8256H64.6838C66.7418 30.8256 67.8924 30.3368 67.8924 29.3814V29.1814C67.8924 28.226 66.8303 27.8039 63.2676 27.2262C59.5279 26.6263 57.5807 25.4931 57.5807 22.9379V22.6491C57.5807 19.8939 60.1033 18.3164 64.2191 18.3164H64.6175Z" fill="white"/>
<path d="M82.3005 33.4276V31.9389H81.8358C81.1499 32.9832 79.8885 33.6498 78.1183 33.6498H77.7421C74.9982 33.6498 73.4492 32.1611 73.4492 28.9171V22.0293H76.9897V28.2728C76.9897 29.8503 77.8085 30.7169 79.446 30.7169H79.8222C81.4597 30.7169 82.3005 29.8503 82.3005 28.2728V22.0293H85.8411V33.4276H82.3005Z" fill="white"/>
<path d="M91.9429 22.0291V23.4289H92.4076C93.2263 22.4068 94.4434 21.8069 96.1472 21.8069H96.5456C99.4222 21.8069 101.524 23.4289 101.524 27.0728V28.3837C101.524 32.0276 99.4222 33.6495 96.5456 33.6495H96.1472C94.3991 33.6495 93.2042 33.0296 92.4076 31.9831H91.9429V38.7599H88.4023V22.0291H91.9429ZM91.9429 27.0283V28.4059C91.9429 30.0723 93.0714 30.8722 94.7532 30.8722H95.1515C96.8553 30.8722 97.9839 30.0501 97.9839 28.4059V27.0283C97.9839 25.4063 96.8553 24.5842 95.1515 24.5842H94.7532C93.0714 24.5842 91.9429 25.3841 91.9429 27.0283Z" fill="white"/>
<path d="M110.114 21.8069C113.721 21.8069 116.31 23.5622 116.31 27.1172V28.5614H106.794V28.6947C106.794 30.3389 107.835 31.161 109.693 31.161H110.114C111.663 31.161 112.636 30.7166 112.946 29.6279H116.199C115.889 31.9831 113.942 33.6495 110.114 33.6495H109.693C106.086 33.6495 103.453 31.9609 103.453 28.4059V27.1172C103.453 23.5622 106.064 21.8069 109.693 21.8069H110.114ZM106.817 26.3173H112.946C112.813 25.0064 111.729 24.2954 110.092 24.2954H109.671C107.923 24.2954 106.949 25.0064 106.817 26.3173Z" fill="white"/>
<path d="M122.154 22.0291V23.34H122.596C123.26 22.3401 124.278 21.8069 125.827 21.8069C128.261 21.8069 129.545 23.0289 129.545 26.2284V26.9839H126.27V26.5173C126.27 25.3397 125.606 24.7176 124.212 24.7176C122.818 24.7176 122.154 25.3397 122.154 26.5173V33.4273H118.613V22.0291H122.154Z" fill="white"/>
<path d="M144.146 16.9844V33.4263H140.605V31.9821H140.118C139.322 33.0286 138.149 33.6485 136.401 33.6485H135.98C133.103 33.6485 131.023 32.0488 131.023 28.3826V27.0717C131.023 23.4278 133.103 21.8059 135.98 21.8059H136.401C138.104 21.8059 139.299 22.4058 140.118 23.4278H140.605V16.9844H144.146ZM134.564 27.0273V28.4049C134.564 30.0268 135.693 30.8712 137.374 30.8712H137.773C139.476 30.8712 140.605 30.0491 140.605 28.4049V27.0273C140.605 25.4053 139.476 24.5832 137.773 24.5832H137.374C135.693 24.5832 134.564 25.4275 134.564 27.0273Z" fill="white"/>
<path d="M152.869 21.8069C156.874 21.8069 158.689 23.34 158.689 25.9396V33.4273H155.148V31.9831H154.617C153.732 33.1407 152.471 33.6495 150.546 33.6495C148.156 33.6495 146.43 32.5852 146.43 30.2056C146.43 27.8948 147.957 26.5395 151.497 26.5395H155.148V25.9396C155.148 24.8064 154.374 24.2732 152.847 24.2732H152.449C150.988 24.2732 150.147 24.7842 150.147 25.8952H146.673C146.673 23.3178 148.643 21.8069 152.449 21.8069H152.869ZM149.926 29.8501C149.926 30.6055 150.546 31.0721 152.028 31.0721C153.511 31.0721 155.148 30.5389 155.148 28.9169V28.5836H151.984C150.501 28.5836 149.926 29.0058 149.926 29.8501Z" fill="white"/>
<path d="M167.65 21.8069C171.346 21.8069 174.001 23.5844 174.001 27.0728V28.3837C174.001 31.9165 171.346 33.6495 167.65 33.6495H167.23C163.512 33.6495 160.879 31.8942 160.879 28.3837V27.0728C160.879 23.5844 163.512 21.8069 167.23 21.8069H167.65ZM164.419 27.0283V28.4059C164.419 29.9168 165.282 30.8722 167.23 30.8722H167.65C169.597 30.8722 170.46 29.9168 170.46 28.4059V27.0283C170.46 25.5174 169.597 24.5842 167.65 24.5842H167.23C165.282 24.5842 164.419 25.5174 164.419 27.0283Z" fill="white"/>
<g clip-path="url(#clip0_9196_220134)">
<path d="M34.3969 16.3322L37.0618 27.5032C37.3539 28.7276 36.4295 29.9043 35.1756 29.9043H11.1412C8.85172 29.9043 6.80585 28.4687 6.0188 26.3099L5.80051 25.7112C5.68468 25.3935 5.9189 25.0569 6.25586 25.0569H21.9521C22.138 25.0569 22.2887 24.9056 22.2887 24.719C22.2887 23.3192 21.1586 22.1844 19.7645 22.1844H8.32676C6.03724 22.1844 3.99137 20.7489 3.20433 18.5901L3.00785 18.0512C2.89203 17.7335 3.12625 17.397 3.46318 17.397H18.3762C18.562 17.397 18.7127 17.2457 18.7127 17.059C18.7127 15.6592 17.5826 14.5245 16.1885 14.5245H5.53408C3.24458 14.5245 1.19871 13.089 0.411664 10.9302L0.237005 10.4511C0.121183 10.1334 0.355403 9.79688 0.692331 9.79688H26.1449C30.0699 9.79688 33.4826 12.4997 34.3969 16.3322Z" fill="url(#paint0_linear_9196_220134)"/>
<path d="M43.8307 19.6569L47.5679 35.7733C47.8513 36.9946 46.9279 38.1624 45.6791 38.1624H20.611C18.2367 38.1624 16.1351 36.6203 15.4139 34.349L15.1599 33.5491C15.0103 33.078 15.3604 32.5969 15.8528 32.5969H38.7435C39.9993 32.5969 40.924 31.4168 40.6285 30.1912L37.285 16.324C37.1741 15.8644 37.5209 15.4219 37.9918 15.4219H38.5179C41.054 15.4219 43.2555 17.1768 43.8307 19.6569Z" fill="url(#paint1_linear_9196_220134)"/>
</g>
<defs>
<linearGradient id="paint0_linear_9196_220134" x1="18.6532" y1="9.79688" x2="18.6532" y2="29.9043" gradientUnits="userSpaceOnUse">
<stop stop-color="#FFC803"/>
<stop offset="1" stop-color="#FFA903"/>
</linearGradient>
<linearGradient id="paint1_linear_9196_220134" x1="31.3264" y1="15.4219" x2="31.3264" y2="38.1624" gradientUnits="userSpaceOnUse">
<stop stop-color="#FF7421"/>
<stop offset="1" stop-color="#EC5901"/>
</linearGradient>
<clipPath id="clip0_9196_220134">
<rect width="47.8043" height="48" fill="white"/>
</clipPath>
</defs>
</svg>
