<svg width="20" height="20" viewBox="0 0 20 20" fill="none" xmlns="http://www.w3.org/2000/svg">
<path d="M2.96816 14.8545C2.48601 14.8545 2.10758 15.2679 2.15005 15.7482L2.30743 17.5277C2.34491 17.9516 2.69998 18.2766 3.12553 18.2766H16.8745C17.3 18.2766 17.6551 17.9516 17.6926 17.5277L17.8499 15.7482C17.8924 15.2679 17.514 14.8545 17.0318 14.8545L2.96816 14.8545Z" fill="#FC7900"/>
<path d="M1.88374 11.9452C1.92122 12.3691 2.27629 12.6941 2.70184 12.6941L17.2982 12.6941C17.7237 12.6941 18.0788 12.3691 18.1163 11.9452L18.7466 4.81772C18.8073 4.13117 18.0464 3.67969 17.4729 4.06201L14.438 6.0853C14.0643 6.33437 13.56 6.23724 13.3056 5.86723L10.6768 2.04351C10.3504 1.56883 9.64956 1.56883 9.32322 2.04351L6.69441 5.86723C6.44003 6.23724 5.93565 6.33437 5.56205 6.0853L2.5271 4.062C1.95363 3.67969 1.1927 4.13117 1.25342 4.81772L1.88374 11.9452Z" fill="#FC7900"/>
</svg>
