<svg width="20" height="20" viewBox="0 0 20 20" fill="none" xmlns="http://www.w3.org/2000/svg">
<g clip-path="url(#clip0_13083_46635)">
<path fill-rule="evenodd" clip-rule="evenodd" d="M10 1.6665C10.2703 1.6665 10.5238 1.80618 10.6801 2.0412L13.7441 6.65038L17.8575 3.60141C18.1297 3.39961 18.4883 3.38903 18.7707 3.57447C19.053 3.75991 19.2052 4.10607 19.1583 4.4559L17.4916 16.887C17.433 17.3245 17.0814 17.6494 16.6667 17.6494H3.33339C2.91869 17.6494 2.56709 17.3245 2.50844 16.887L0.841775 4.4559C0.794874 4.10607 0.947113 3.75991 1.22942 3.57447C1.51173 3.38903 1.87037 3.39961 2.14262 3.60141L6.25597 6.65038L9.32002 2.0412C9.47625 1.80618 9.72975 1.6665 10 1.6665ZM10 4.09062L7.1384 8.39532C6.87397 8.7931 6.35804 8.88936 5.9825 8.61099L2.76243 6.22416L4.05614 15.8735L15.9439 15.8735L17.2376 6.22416L14.0176 8.61099C13.642 8.88936 13.1261 8.7931 12.8617 8.39532L10 4.09062Z" fill="#717A8C"/>
<path fill-rule="evenodd" clip-rule="evenodd" d="M16.6667 14.0977L3.33337 14.0977L3.33337 12.3218L16.6667 12.3218V14.0977Z" fill="#717A8C"/>
</g>
<defs>
<clipPath id="clip0_13083_46635">
<rect width="20" height="20" fill="white"/>
</clipPath>
</defs>
</svg>
