<svg width="20" height="20" viewBox="0 0 20 20" fill="none" xmlns="http://www.w3.org/2000/svg">
<g clip-path="url(#clip0_13083_52904)">
<path fill-rule="evenodd" clip-rule="evenodd" d="M10 20C15.5228 20 20 15.5228 20 10C20 4.47715 15.5228 0 10 0C4.47715 0 0 4.47715 0 10C0 15.5228 4.47715 20 10 20ZM10.9091 4.54545C10.9091 4.04338 10.5021 3.63636 10 3.63636C9.49792 3.63636 9.09091 4.04338 9.09091 4.54545V5.07774C7.80796 5.37452 6.81818 6.48929 6.81818 7.87345C6.81818 9.25113 7.81354 10.4016 9.14937 10.6821L10.4151 10.9479C10.9941 11.0695 11.3636 11.5469 11.3636 12.051C11.3636 12.6409 10.8546 13.1818 10.1478 13.1818H10C9.33991 13.1818 8.81951 12.7508 8.67695 12.2191C8.54694 11.7342 8.0484 11.4464 7.56346 11.5765C7.0785 11.7065 6.79078 12.205 6.92079 12.69C7.2047 13.7489 8.04037 14.5676 9.09091 14.8716V15.4545C9.09091 15.9566 9.49792 16.3636 10 16.3636C10.5021 16.3636 10.9091 15.9566 10.9091 15.4545V14.9056C12.1972 14.5803 13.1818 13.4491 13.1818 12.051C13.1818 10.6378 12.1607 9.45665 10.7887 9.16853L9.52304 8.90274C8.98012 8.78872 8.63636 8.34202 8.63636 7.87345C8.63636 7.32526 9.11013 6.81818 9.77347 6.81818H10C10.6601 6.81818 11.1805 7.24916 11.323 7.78087C11.4531 8.26582 11.9516 8.55355 12.4365 8.42353C12.9215 8.29352 13.2092 7.79499 13.0792 7.31004C12.7953 6.25109 11.9596 5.4324 10.9091 5.12836V4.54545Z" fill="#FC7900"/>
</g>
<defs>
<clipPath id="clip0_13083_52904">
<rect width="20" height="20" fill="white"/>
</clipPath>
</defs>
</svg>
