<svg width="20" height="20" viewBox="0 0 20 20" fill="none" xmlns="http://www.w3.org/2000/svg">
<g clip-path="url(#clip0_13083_36737)">
<path d="M10.8334 5.41671V5.53437C11.7964 5.81307 12.5624 6.56354 12.8226 7.53424C12.9418 7.97878 12.6781 8.43576 12.2335 8.55495C11.789 8.67413 11.332 8.41038 11.2128 7.96584C11.0822 7.47844 10.6051 7.08337 10 7.08337H9.79239C9.18433 7.08337 8.75004 7.54819 8.75004 8.0507C8.75004 8.48022 9.06515 8.8897 9.56283 8.99422L10.7231 9.23786C11.9807 9.50197 12.9167 10.5847 12.9167 11.8801C12.9167 13.1617 12.0141 14.1987 10.8334 14.4968V14.5834C10.8334 15.0436 10.4603 15.4167 10 15.4167C9.5398 15.4167 9.16671 15.0436 9.16671 14.5834V14.4657C8.20371 14.187 7.43768 13.4365 7.17743 12.4658C7.05825 12.0213 7.322 11.5643 7.76654 11.4451C8.21108 11.326 8.66806 11.5897 8.78725 12.0342C8.91792 12.5216 9.39496 12.9167 10 12.9167H10.1355C10.7835 12.9167 11.25 12.4209 11.25 11.8801C11.25 11.4181 10.9113 10.9804 10.3805 10.869L9.2203 10.6253C7.99579 10.3682 7.08337 9.31357 7.08337 8.0507C7.08337 6.78189 7.99067 5.76001 9.16671 5.48797V5.41671C9.16671 4.95647 9.5398 4.58337 10 4.58337C10.4603 4.58337 10.8334 4.95647 10.8334 5.41671Z" fill="#717A8C"/>
<path fill-rule="evenodd" clip-rule="evenodd" d="M10 0.833374C4.93743 0.833374 0.833374 4.93743 0.833374 10C0.833374 15.0626 4.93743 19.1667 10 19.1667C15.0626 19.1667 19.1667 15.0626 19.1667 10C19.1667 4.93743 15.0626 0.833374 10 0.833374ZM2.50004 10C2.50004 5.8579 5.8579 2.50004 10 2.50004C14.1422 2.50004 17.5 5.8579 17.5 10C17.5 14.1422 14.1422 17.5 10 17.5C5.8579 17.5 2.50004 14.1422 2.50004 10Z" fill="#717A8C"/>
</g>
<defs>
<clipPath id="clip0_13083_36737">
<rect width="20" height="20" fill="white"/>
</clipPath>
</defs>
</svg>
