<svg width="20" height="20" viewBox="0 0 20 20" fill="none" xmlns="http://www.w3.org/2000/svg">
<path fill-rule="evenodd" clip-rule="evenodd" d="M16.4227 5.24404C16.7481 5.56947 16.7481 6.09711 16.4227 6.42255L13.0893 9.75588C12.7639 10.0813 12.2363 10.0813 11.9108 9.75588C11.5854 9.43045 11.5854 8.90281 11.9108 8.57737L13.8216 6.66663L4.16675 6.66663C3.70651 6.66663 3.33341 6.29353 3.33341 5.83329C3.33341 5.37305 3.70651 4.99996 4.16675 4.99996L13.8216 4.99996L11.9108 3.08921C11.5854 2.76378 11.5854 2.23614 11.9108 1.9107C12.2363 1.58527 12.7639 1.58527 13.0893 1.9107L16.4227 5.24404ZM16.6667 14.1666C16.6667 14.6269 16.2937 15 15.8334 15L6.17859 15L8.08934 16.9107C8.41477 17.2361 8.41477 17.7638 8.08934 18.0892C7.7639 18.4147 7.23626 18.4147 6.91083 18.0892L3.57749 14.7559C3.25205 14.4304 3.25205 13.9028 3.57749 13.5774L6.91083 10.244C7.23626 9.9186 7.7639 9.9186 8.08934 10.244C8.41477 10.5695 8.41477 11.0971 8.08934 11.4225L6.17859 13.3333L15.8334 13.3333C16.2937 13.3333 16.6667 13.7064 16.6667 14.1666Z" fill="#717A8C"/>
</svg>
