<svg width="20" height="20" viewBox="0 0 20 20" fill="none" xmlns="http://www.w3.org/2000/svg">
<path fill-rule="evenodd" clip-rule="evenodd" d="M16.5699 5.09668C16.9767 5.50348 16.9767 6.16302 16.5699 6.56982L13.2366 9.90315C12.8298 10.3099 12.1702 10.3099 11.7634 9.90315C11.3566 9.49636 11.3566 8.83681 11.7634 8.43001L13.3185 6.87492L4.16667 6.87492C3.59137 6.87492 3.125 6.40855 3.125 5.83325C3.125 5.25795 3.59137 4.79158 4.16667 4.79158L13.3185 4.79158L11.7634 3.23649C11.3566 2.82969 11.3566 2.17014 11.7634 1.76335C12.1702 1.35655 12.8298 1.35655 13.2366 1.76335L16.5699 5.09668ZM16.875 14.1666C16.875 14.7419 16.4086 15.2083 15.8333 15.2083L6.68147 15.2083L8.23657 16.7633C8.64337 17.1701 8.64337 17.8297 8.23657 18.2365C7.82977 18.6433 7.17023 18.6433 6.76343 18.2365L3.4301 14.9032C3.0233 14.4964 3.0233 13.8368 3.4301 13.43L6.76343 10.0967C7.17023 9.68989 7.82977 9.68989 8.23657 10.0967C8.64337 10.5035 8.64337 11.163 8.23657 11.5698L6.68147 13.1249L15.8333 13.1249C16.4086 13.1249 16.875 13.5913 16.875 14.1666Z" fill="#FC7900"/>
</svg>
