<svg width="20" height="20" viewBox="0 0 20 20" fill="none" xmlns="http://www.w3.org/2000/svg">
<g clip-path="url(#clip0_13083_39508)">
<path d="M18.6789 5.67995L19.437 5.60383C19.3979 5.21446 19.0702 4.91801 18.6789 4.91801V5.67995ZM16.7935 5.67995L16.0755 5.93488L16.2554 6.44189H16.7935V5.67995ZM10.5586 7.56261V8.32455C10.792 8.32455 11.0125 8.21757 11.157 8.03426C11.3015 7.85094 11.354 7.61153 11.2995 7.38458L10.5586 7.56261ZM3.19067 4.32392L3.81317 3.88456C3.64404 3.64491 3.35234 3.52363 3.06315 3.57273C2.77396 3.62182 2.53863 3.83256 2.45805 4.1146L3.19067 4.32392ZM4.33358 8.89556V9.65751C4.64176 9.65751 4.91959 9.47187 5.03752 9.18715C5.15546 8.90243 5.09026 8.57471 4.87236 8.3568L4.33358 8.89556ZM3.19067 8.89556V8.13362C2.76986 8.13362 2.42873 8.47476 2.42873 8.89556H3.19067ZM5.47649 11.5624L5.66129 12.3015C6.00048 12.2167 6.23843 11.912 6.23843 11.5624C6.23843 11.2127 6.00048 10.9079 5.66129 10.8231L5.47649 11.5624ZM3.95261 11.9433L3.76781 11.2041C3.42862 11.2889 3.19067 11.5937 3.19067 11.9433H3.95261ZM7.00038 13.8482L7.53915 14.387C7.75706 14.1691 7.82225 13.8413 7.70432 13.5566C7.58638 13.2719 7.30855 13.0863 7.00038 13.0863V13.8482ZM2.42873 15.3721V14.6101C2.10898 14.6101 1.82325 14.8098 1.71328 15.11C1.6033 15.4103 1.69247 15.7472 1.93656 15.9537L2.42873 15.3721ZM16.9056 8.51459L16.6647 7.79176L16.1437 7.96542V8.51459H16.9056ZM18.6789 4.91801H16.7935V6.44189H18.6789V4.91801ZM10.5586 6.80067C8.1897 6.80067 6.49314 6.04846 5.39338 5.31055C4.84107 4.93997 4.43717 4.57136 4.17488 4.30021C4.04389 4.16479 3.94875 4.05423 3.88861 3.9807C3.85856 3.94396 3.83732 3.91655 3.82476 3.89999C3.81849 3.89171 3.8144 3.88616 3.81247 3.88352C3.81247 3.88352 3.81317 3.88456 3.19067 4.32392C2.56816 4.76328 2.56858 4.76395 2.56858 4.76395C2.72279 4.97625 2.89732 5.17128 3.07958 5.35972C3.40472 5.69583 3.88989 6.13689 4.54431 6.57598C5.85799 7.45742 7.84541 8.32455 10.5586 8.32455V6.80067ZM4.33358 8.13362H3.19067L3.19067 9.65751H4.33358V8.13362ZM2.42873 8.89556C2.42873 10.4032 3.44353 11.8395 5.29169 12.3015L5.66129 10.8231C4.46169 10.5232 3.95261 9.67371 3.95261 8.89556H2.42873ZM3.19067 11.9433C3.19067 12.3744 3.3967 12.752 3.61309 13.0302C3.84049 13.3226 4.14429 13.5901 4.48239 13.8154C5.15338 14.2628 6.0599 14.6101 7.00038 14.6101V13.0863C6.41696 13.0863 5.79961 12.8621 5.32769 12.5475C5.09433 12.392 4.92191 12.2308 4.81597 12.0946C4.69901 11.9443 4.71455 11.8932 4.71455 11.9433H3.19067ZM7.00038 13.8482C6.4616 13.3094 6.46211 13.3089 6.46211 13.3089L6.46344 13.3076C6.46572 13.3053 6.46427 13.3068 6.46139 13.3094C6.45565 13.3148 6.44425 13.3254 6.4272 13.3402C6.39308 13.3701 6.3365 13.4175 6.25748 13.4768C6.09935 13.5953 5.85234 13.7608 5.51672 13.9287C4.84794 14.263 3.82098 14.6101 2.42873 14.6101L2.42873 16.134C4.08424 16.134 5.3431 15.7192 6.19821 15.2916C6.62452 15.0785 6.94897 14.863 7.17181 14.6959C7.28328 14.6123 7.36956 14.5406 7.43068 14.4871C7.46126 14.4603 7.48557 14.4381 7.50364 14.4212C7.51267 14.4127 7.52015 14.4056 7.52607 14.3998C7.52903 14.3969 7.53159 14.3944 7.53377 14.3923C7.53486 14.3912 7.53675 14.3893 7.53675 14.3893L7.53802 14.3881C7.53802 14.3881 7.53915 14.387 7.00038 13.8482ZM1.93656 15.9537C4.68134 18.2762 8.62255 18.4448 11.8245 17.0724C15.0489 15.6906 17.6676 12.6856 17.6676 8.51459H16.1437C16.1437 11.963 14.0002 14.4821 11.2243 15.6718C8.42597 16.871 5.12873 16.6586 2.9209 14.7904L1.93656 15.9537ZM2.45805 4.1146C2.01315 5.67174 2.35085 7.00746 2.78698 7.93422C3.0045 8.39644 3.24881 8.76305 3.44027 9.01605C3.53635 9.143 3.62012 9.24268 3.68211 9.31287C3.71313 9.34801 3.7388 9.37586 3.75794 9.39617C3.76752 9.40633 3.77547 9.41461 3.78166 9.42098C3.78476 9.42417 3.78741 9.42687 3.78961 9.42911C3.7907 9.43022 3.79256 9.43209 3.79256 9.43209C3.79456 9.4341 3.7948 9.43434 4.33358 8.89556C4.87236 8.3568 4.87236 8.3568 4.87236 8.3568L4.87391 8.35836C4.87391 8.35836 4.87099 8.35532 4.8668 8.35088C4.85842 8.34198 4.84391 8.32631 4.82433 8.30415C4.78512 8.25975 4.72603 8.18977 4.65543 8.09648C4.51354 7.90899 4.32927 7.6327 4.16582 7.28536C3.83999 6.593 3.60625 5.6429 3.92329 4.53325L2.45805 4.1146ZM13.7567 2.95691C11.3235 2.95691 9.2101 5.21184 9.81773 7.74064L11.2995 7.38458C10.9518 5.93778 12.178 4.48079 13.7567 4.48079V2.95691ZM17.5115 5.42501C16.9471 3.83525 15.2319 2.95532 13.7558 2.95691L13.7575 4.48079C14.7521 4.47973 15.7773 5.09497 16.0755 5.93488L17.5115 5.42501ZM17.1465 9.23744C18.6361 8.74092 19.6033 7.25992 19.437 5.60383L17.9207 5.75607C18.0177 6.72151 17.4609 7.52633 16.6647 7.79176L17.1465 9.23744ZM5.29169 10.8231L3.76781 11.2041L4.13741 12.6825L5.66129 12.3015L5.29169 10.8231Z" fill="#717A8C"/>
</g>
<defs>
<clipPath id="clip0_13083_39508">
<rect width="20" height="20" fill="white"/>
</clipPath>
</defs>
</svg>
