<svg width="20" height="20" viewBox="0 0 20 20" fill="none" xmlns="http://www.w3.org/2000/svg">
<g clip-path="url(#clip0_13083_57186)">
<path d="M19.1659 4.62674C18.4911 4.92641 17.7662 5.12807 17.0054 5.21902C17.7824 4.75366 18.3783 4.01683 18.6589 3.13827C17.9326 3.56909 17.1274 3.88215 16.27 4.05138C15.5839 3.32019 14.6067 2.86328 13.525 2.86328C11.4478 2.86328 9.76404 4.54777 9.76404 6.62429C9.76404 6.91902 9.79788 7.2067 9.86134 7.48099C6.73563 7.32446 3.96458 5.82682 2.10875 3.55075C1.78582 4.10637 1.60037 4.75225 1.60037 5.44254C1.60037 6.74698 2.26387 7.89841 3.27287 8.57249C2.65662 8.55274 2.07632 8.38352 1.56935 8.10218C1.56935 8.1184 1.56935 8.13321 1.56935 8.14942C1.56935 9.97211 2.86533 11.4923 4.58648 11.8371C4.2713 11.9231 3.93849 11.969 3.59511 11.969C3.35326 11.969 3.11705 11.945 2.88789 11.902C3.36665 13.3961 4.7557 14.4841 6.40141 14.5144C5.1146 15.5234 3.49287 16.1248 1.73011 16.1248C1.42692 16.1248 1.12725 16.1072 0.83252 16.0719C2.49726 17.1388 4.47366 17.7614 6.59813 17.7614C13.5166 17.7614 17.2987 12.0303 17.2987 7.06004C17.2987 6.89716 17.2952 6.73499 17.2882 6.57352C18.0236 6.04258 18.6617 5.38049 19.1659 4.62674Z" fill="#FC7900"/>
</g>
<defs>
<clipPath id="clip0_13083_57186">
<rect width="20" height="20" fill="white"/>
</clipPath>
</defs>
</svg>
