<svg width="32" height="32" viewBox="0 0 32 32" fill="none" xmlns="http://www.w3.org/2000/svg">
<g id="24/Bold/appearance-24">
<path id="Shape" fill-rule="evenodd" clip-rule="evenodd" d="M28.1668 8.15385L17.8001 20.3333C17.8001 20.3333 17.3334 18 15.6667 16.3333C14.0001 14.6667 11.6667 14.2 11.6667 14.2L23.8462 3.83328C25.0627 2.79785 26.8705 2.87041 28.0001 4C29.1296 5.12959 29.2022 6.93737 28.1668 8.15385ZM10.0001 27.3333C12.9335 27.0667 15.3334 24.9455 15.3334 22C15.3334 19.0545 12.9456 16.6667 10.0001 16.6667C7.05454 16.6667 4.66673 19.0545 4.66673 22C4.66673 23.2203 3.68941 23.4634 2.62927 23.368C1.70145 23.2846 1.01752 24.1546 1.70371 24.7846C3.23231 26.1882 5.87948 27.7079 10.0001 27.3333Z" fill="#D693FF"/>
</g>
</svg>
