<svg width="32" height="32" viewBox="0 0 32 32" fill="none" xmlns="http://www.w3.org/2000/svg">
<g id="24/Bold/bird-24">
<path id="Subtract" fill-rule="evenodd" clip-rule="evenodd" d="M14.9335 9.75334C14.9335 6.28241 17.6324 3.32601 21.1002 3.20334C24.1173 3.09641 26.6821 5.08111 27.4752 7.81792L29.5731 8.99084C30.0008 9.23084 29.9516 9.86184 29.4918 10.0325L27.6835 10.7075C27.4726 15.3297 25.7953 24.5827 17.7731 26.3658C18.2791 26.5995 18.6689 26.8096 18.6689 26.8096C18.7901 26.8799 18.8963 26.9734 18.9813 27.0847C19.0664 27.1961 19.1287 27.3231 19.1647 27.4585C19.2007 27.5939 19.2096 27.7351 19.191 27.874C19.1725 28.0129 19.1267 28.1467 19.0564 28.2679C18.9861 28.3891 18.8926 28.4953 18.7813 28.5804C18.6699 28.6654 18.5429 28.7277 18.4075 28.7637C18.2721 28.7997 18.1309 28.8086 17.992 28.7901C17.8531 28.7715 17.7193 28.7257 17.5981 28.6554C17.5981 28.6554 17.1936 28.4202 16.6272 28.1804C16.0609 27.9406 15.3354 27.7325 14.9335 27.7325C14.1297 27.7325 13.6647 28.3575 13.6647 28.3575C13.5827 28.4711 13.479 28.5674 13.3598 28.6409C13.2405 28.7144 13.1079 28.7637 12.9695 28.786C12.8312 28.8082 12.6898 28.803 12.5535 28.7707C12.4172 28.7383 12.2886 28.6794 12.175 28.5973C12.0615 28.5152 11.9652 28.4115 11.8917 28.2922C11.8182 28.1729 11.7689 28.0403 11.7467 27.902C11.7245 27.7636 11.7297 27.6223 11.7621 27.486C11.7945 27.3496 11.8535 27.221 11.9356 27.1075C11.9356 27.1075 12.1727 26.8158 12.5543 26.4971C7.3431 25.7307 4.86185 22.5229 3.82932 20.6242C3.37279 19.7826 3.83534 19.1992 4.55641 19.1992H6.67516C8.02556 21.132 10.2636 22.3992 12.8002 22.3992C14.7927 22.3992 16.2532 21.8543 17.3252 21.0596C18.042 20.5263 17.4257 19.4035 16.6022 19.7513C15.8502 20.0691 14.9484 20.2658 13.8668 20.2658C11.6695 20.2658 9.73239 19.1585 8.57932 17.4721C8.38519 17.1873 8.23867 16.5263 9.03974 16.2575C9.11844 16.2309 9.30237 16.1738 9.55842 16.0943C10.2359 15.8839 11.4182 15.5168 12.4918 15.1429C13.8582 14.6683 14.9335 13.6824 14.9335 11.7325V9.75334ZM23 11C24.1046 11 25 10.1046 25 9C25 7.89543 24.1046 7 23 7C21.8954 7 21 7.89543 21 9C21 10.1046 21.8954 11 23 11Z" fill="#FFDA1A"/>
</g>
</svg>
