<svg width="30" height="26" viewBox="0 0 30 26" fill="none" xmlns="http://www.w3.org/2000/svg">
<path id="Shape" fill-rule="evenodd" clip-rule="evenodd" d="M28.6503 4.64991C29.5615 3.73868 29.5615 2.2613 28.6503 1.35007C27.739 0.438851 26.2617 0.438851 25.3504 1.35007L17.289 9.41151L11.6832 6.14147C10.3061 5.33818 8.56781 5.51676 7.38282 6.58325L1.43943 11.9323C0.481571 12.7944 0.403922 14.2697 1.26599 15.2276C2.12806 16.1854 3.60341 16.2631 4.56126 15.401L9.96221 10.5402L15.6035 13.8309C17.0422 14.6702 18.8659 14.4342 20.0437 13.2564L28.6503 4.64991ZM3.00033 21.3333C1.71166 21.3333 0.666992 22.378 0.666992 23.6667C0.666992 24.9553 1.71166 26 3.00033 26H27.0003C28.289 26 29.3337 24.9553 29.3337 23.6667C29.3337 22.378 28.289 21.3333 27.0003 21.3333H3.00033Z" fill="#F23051"/>
</svg>
