<svg width="30" height="20" viewBox="0 0 30 20" fill="none" xmlns="http://www.w3.org/2000/svg">
<path id="Shape" fill-rule="evenodd" clip-rule="evenodd" d="M18.2993 0.102688C19.3471 0.451983 19.9135 1.58462 19.5642 2.63251L14.2308 18.6325C13.8815 19.6804 12.7489 20.2467 11.701 19.8974C10.6531 19.5481 10.0868 18.4155 10.4361 17.3676L15.7694 1.3676C16.1187 0.319712 17.2514 -0.246608 18.2993 0.102688ZM8.41434 3.91912C9.19539 4.70017 9.19539 5.9665 8.41434 6.74755L5.16189 10L8.41434 13.2525C9.19539 14.0335 9.19539 15.2998 8.41434 16.0809C7.63329 16.8619 6.36696 16.8619 5.58591 16.0809L1.86205 12.357C0.560308 11.0553 0.560303 8.94473 1.86205 7.64298L5.58591 3.91912C6.36696 3.13807 7.63329 3.13807 8.41434 3.91912ZM23.9395 6.74755C23.3537 5.9665 23.3537 4.70017 23.9395 3.91912C24.5252 3.13807 25.475 3.13807 26.0608 3.91912L28.8537 7.64298C29.83 8.94473 29.83 11.0553 28.8537 12.357L26.0608 16.0809C25.475 16.8619 24.5252 16.8619 23.9395 16.0809C23.3537 15.2998 23.3537 14.0335 23.9395 13.2525L26.3788 10L23.9395 6.74755Z" fill="#32D74B"/>
</svg>
