<svg width="32" height="29" viewBox="0 0 32 29" fill="none" xmlns="http://www.w3.org/2000/svg">
<path id="Shape" d="M17.3769 28.1237L17.3798 28.1221C18.8809 27.3141 22.3154 25.3016 25.3928 22.2826C28.4559 19.2776 31.3337 15.1067 31.3337 9.99999C31.3337 5.50156 28.2873 0.666656 22.667 0.666656C19.817 0.666656 17.5586 2.13944 16.0003 4.46423C14.4421 2.13944 12.1837 0.666656 9.33366 0.666656C3.71332 0.666656 0.666992 5.50156 0.666992 9.99999C0.666992 15.1067 3.54471 19.2776 6.60784 22.2826C9.68719 25.3035 13.1241 27.3167 14.6237 28.1236L14.6711 28.1493C14.8691 28.2568 15.156 28.4125 15.5207 28.4854C15.8229 28.5459 16.1778 28.5459 16.4799 28.4854C16.8447 28.4125 17.1315 28.2568 17.3295 28.1493L17.3769 28.1237Z" fill="#88C3FF"/>
</svg>
