<svg width="32" height="32" viewBox="0 0 32 32" fill="none" xmlns="http://www.w3.org/2000/svg">
<g id="24/Bold/fashion-r-24">
<path id="Shape" fill-rule="evenodd" clip-rule="evenodd" d="M11.3761 2.66013L10.8531 1.75342L4.40082 3.63352C2.97819 4.04806 2 5.35197 2 6.83376V9.72869C2 11.3468 3.42945 12.592 5.03229 12.3702L7.25926 12.0619L7.25926 26.3832C7.25926 28.5923 9.05012 30.3832 11.2593 30.3832H20.7407C22.9499 30.3832 24.7407 28.5923 24.7407 26.3832V12.062L26.9676 12.3703C28.5705 12.5922 30 11.347 30 9.72881V6.83391C30 5.35212 29.0218 4.04823 27.5992 3.63368L21.1469 1.75347L20.6239 2.66018C19.7005 4.2609 17.9747 5.33345 16 5.33345C14.0253 5.33345 12.2994 4.26088 11.3761 2.66013Z" fill="#3A9DFF"/>
</g>
</svg>
