<svg width="32" height="32" viewBox="0 0 32 32" fill="none" xmlns="http://www.w3.org/2000/svg">
<g id="24/Bold/tools-24">
<path id="Shape" fill-rule="evenodd" clip-rule="evenodd" d="M17.0293 6L10.0146 6.00001C10.2775 4.90058 10.5179 4.21637 10.9364 3.69963C11.4679 3.04316 12.1937 2.57183 13.0097 2.35321C13.9373 2.10466 15.0329 2.33754 17.2241 2.80331L24.2668 4.30027C26.4581 4.76604 27.5537 4.99892 28.3 5.60326C28.9565 6.13486 29.4278 6.86064 29.6464 7.67657C29.895 8.60416 29.6621 9.69979 29.1963 11.891L27.6993 18.9337L27.6993 18.9337C27.2336 21.125 27.0007 22.2206 26.3963 22.9669C26.2733 23.1189 26.1398 23.2609 25.9972 23.3922C25.9997 23.0628 25.9997 22.719 25.9997 22.3629V22.3629V14.9705V14.9705C25.9998 13.9329 25.9998 12.9992 25.9363 12.2223C25.8684 11.3904 25.7145 10.5065 25.2731 9.64007C24.6339 8.38566 23.614 7.36579 22.3596 6.72663C21.4932 6.28518 20.6093 6.13133 19.7774 6.06336C19.0005 5.99989 18.0668 5.99994 17.0293 6H17.0293ZM3.76898 10.8507C3.33301 11.7064 3.33301 12.8265 3.33301 15.0667V22.2667C3.33301 24.5069 3.33301 25.627 3.76898 26.4826C4.15248 27.2353 4.7644 27.8472 5.51705 28.2307C6.37269 28.6667 7.4928 28.6667 9.73301 28.6667H16.933C19.1732 28.6667 20.2933 28.6667 21.149 28.2307C21.9016 27.8472 22.5135 27.2353 22.897 26.4826C23.333 25.627 23.333 24.5069 23.333 22.2667V15.0667C23.333 12.8265 23.333 11.7064 22.897 10.8507C22.5135 10.0981 21.9016 9.48613 21.149 9.10264C20.2933 8.66667 19.1732 8.66667 16.933 8.66667H9.73301C7.4928 8.66667 6.37269 8.66667 5.51705 9.10264C4.7644 9.48613 4.15248 10.0981 3.76898 10.8507ZM9.66634 24.6667C10.955 24.6667 11.9997 23.622 11.9997 22.3333C11.9997 21.0447 10.955 20 9.66634 20C8.37768 20 7.33301 21.0447 7.33301 22.3333C7.33301 23.622 8.37768 24.6667 9.66634 24.6667ZM19.333 15C19.333 16.2887 18.2883 17.3333 16.9997 17.3333C15.711 17.3333 14.6663 16.2887 14.6663 15C14.6663 13.7113 15.711 12.6667 16.9997 12.6667C18.2883 12.6667 19.333 13.7113 19.333 15Z" fill="#A8F230"/>
</g>
</svg>
