<svg width="28" height="27" viewBox="0 0 28 27" fill="none" xmlns="http://www.w3.org/2000/svg">
<g id="Shape">
<path fill-rule="evenodd" clip-rule="evenodd" d="M22.2055 6.97436C23.5879 3.65652 21.1502 0 17.5559 0C16.1681 0 14.9114 0.561253 14.0003 1.46916C13.0893 0.561253 11.8326 0 10.4448 0C6.85045 0 4.41277 3.65652 5.7952 6.97436C5.81436 7.02034 5.83415 7.06593 5.85455 7.11111H3.92625C2.12621 7.11111 0.666992 8.57033 0.666992 10.3704V13.3333H12.5188V7.11111H15.4818V13.3333H27.3337V10.3704C27.3337 8.57033 25.8744 7.11111 24.0744 7.11111H22.1461C22.1665 7.06593 22.1863 7.02034 22.2055 6.97436ZM15.4818 7.11111V5.03704C15.4818 3.89156 16.4104 2.96296 17.5559 2.96296C19.0359 2.96296 20.0396 4.46859 19.4704 5.83476C19.1484 6.60766 18.3932 7.11111 17.5559 7.11111H15.4818ZM12.5188 7.11111H10.4448C9.60746 7.11111 8.85228 6.60766 8.53024 5.83476C7.961 4.46859 8.96476 2.96296 10.4448 2.96296C11.5896 2.96296 12.5178 3.89056 12.5188 5.03519L12.5188 7.11111Z" fill="#C15CFF"/>
<path d="M24.9633 16.2963H15.4818V26.6667H21.1114C23.2388 26.6667 24.9633 24.9421 24.9633 22.8148V16.2963Z" fill="#C15CFF"/>
<path d="M12.5188 26.6667V16.2963H3.03738L3.03743 22.8148C3.03745 24.9422 4.76198 26.6667 6.88929 26.6667H12.5188Z" fill="#C15CFF"/>
</g>
</svg>
