<svg width="32" height="32" viewBox="0 0 32 32" fill="none" xmlns="http://www.w3.org/2000/svg">
<g id="24/Bold/megaphone-24">
<path id="Shape" d="M21.771 5.72666L17.5568 8.36052C16.9778 8.72242 16.6883 8.90338 16.3777 9.03142C16.1019 9.14508 15.8144 9.22755 15.5203 9.2773C15.1891 9.33333 14.8477 9.33333 14.1648 9.33333H8.00033C4.66699 9.33333 2.66699 12 2.66699 14.6667C2.66699 17.3333 4.66699 20 8.00033 20V26.6667C8.00033 28.1394 9.19423 29.3333 10.667 29.3333C12.1398 29.3333 13.3337 28.1394 13.3337 26.6667V20H14.1648C14.8477 20 15.1891 20 15.5203 20.056C15.8144 20.1058 16.1019 20.1882 16.3777 20.3019C16.6883 20.43 16.9778 20.6109 17.5568 20.9728L21.771 23.6067C23.3689 24.6054 24.1679 25.1047 24.8273 25.0517C25.402 25.0055 25.9288 24.7135 26.2726 24.2507C26.667 23.7196 26.667 22.7774 26.667 20.8931V8.44026C26.667 6.55588 26.667 5.61369 26.2726 5.08266C25.9288 4.61979 25.402 4.3278 24.8273 4.28159C24.1679 4.22859 23.3689 4.72794 21.771 5.72666Z" fill="#FFDA1A"/>
</g>
</svg>
