<svg width="32" height="32" viewBox="0 0 32 32" fill="none" xmlns="http://www.w3.org/2000/svg">
<g id="24/Bold/donation-24">
<path id="Shape" fill-rule="evenodd" clip-rule="evenodd" d="M6.09792 4.37612C6.79375 3.50633 7.84723 3 8.96111 3H23.0386C24.1525 3 25.206 3.50633 25.9018 4.37612L29.9683 9.45925C30.8448 10.5549 30.8448 12.1118 29.9683 13.2074L17.8219 28.3904C16.8878 29.5581 15.1119 29.558 14.1778 28.3904L2.03142 13.2074C1.15489 12.1118 1.15489 10.5549 2.03142 9.45925L6.09792 4.37612ZM8.96111 6.33333C8.85985 6.33333 8.76407 6.37936 8.70082 6.45843L4.8009 11.3333L27.1988 11.3333L23.2989 6.45843C23.2356 6.37936 23.1399 6.33333 23.0386 6.33333H8.96111Z" fill="#5EFAD4"/>
</g>
</svg>
