<svg width="32" height="32" viewBox="0 0 32 32" fill="none" xmlns="http://www.w3.org/2000/svg">
<g id="24/Bold/music-r-24">
<path id="Shape" fill-rule="evenodd" clip-rule="evenodd" d="M12.6363 4.64396V16.4414C12.9824 17.1811 13.1758 18.0066 13.1758 18.8773C13.1758 22.0553 10.5994 24.6317 7.42138 24.6317C4.24332 24.6317 1.66699 22.0553 1.66699 18.8773C1.66699 15.6992 4.24332 13.1229 7.42138 13.1229C8.1164 13.1229 8.78263 13.2461 9.39944 13.4719V3.87375C9.39944 2.00187 11.2594 0.69908 13.0186 1.33878L26.6853 6.30848C27.7513 6.6961 28.4608 7.70918 28.4608 8.84345V22.1957C28.807 22.9354 29.0003 23.7609 29.0003 24.6315C29.0003 27.8096 26.424 30.3859 23.2459 30.3859C20.0679 30.3859 17.4915 27.8096 17.4915 24.6315C17.4915 21.4534 20.0679 18.8771 23.2459 18.8771C23.9409 18.8771 24.6072 19.0003 25.224 19.2261V9.22131L12.6363 4.64396Z" fill="#FFDA1A"/>
</g>
</svg>
