<svg width="28" height="29" viewBox="0 0 28 29" fill="none" xmlns="http://www.w3.org/2000/svg">
<g id="Shape">
<path d="M12.5148 11.0724L3.5814 7.49906C2.48918 7.06217 2.45669 5.52793 3.52944 5.04519L12.3589 1.07195C13.4028 0.602197 14.5979 0.602197 15.6418 1.07195L24.4712 5.04519C25.544 5.52793 25.5115 7.06217 24.4192 7.49906L15.4859 11.0724C14.5322 11.4539 13.4684 11.4539 12.5148 11.0724Z" fill="#D693FF"/>
<path d="M10.9669 13.0055L2.48359 9.70642C1.60954 9.36651 0.666992 10.0113 0.666992 10.9491V22.5091C0.666992 23.6089 1.34214 24.5959 2.36713 24.9945L10.8504 28.2935C11.7244 28.6334 12.667 27.9887 12.667 27.0508V15.4908C12.667 14.391 11.9918 13.4041 10.9669 13.0055Z" fill="#D693FF"/>
<path d="M25.5171 9.70642L17.0338 13.0055C16.0088 13.4041 15.3337 14.391 15.3337 15.4908V27.0508C15.3337 27.9887 16.2762 28.6334 17.1503 28.2935L25.6335 24.9945C26.6585 24.5959 27.3337 23.6089 27.3337 22.5091V10.9491C27.3337 10.0113 26.3911 9.36651 25.5171 9.70642Z" fill="#D693FF"/>
</g>
</svg>
