<svg width="28" height="29" viewBox="0 0 28 29" fill="none" xmlns="http://www.w3.org/2000/svg">
<path id="Shape" fill-rule="evenodd" clip-rule="evenodd" d="M15.3337 8.1057C16.8872 7.55659 18.0003 6.07494 18.0003 4.33331C18.0003 2.12417 16.2095 0.333313 14.0003 0.333313C11.7912 0.333313 10.0003 2.12417 10.0003 4.33331C10.0003 6.07494 11.1134 7.55659 12.667 8.1057V9.66665H4.66699C2.45785 9.66665 0.666992 11.4575 0.666992 13.6666V24.3333C0.666992 26.5425 2.45785 28.3333 4.66699 28.3333H23.3337C25.5428 28.3333 27.3337 26.5425 27.3337 24.3333V13.6666C27.3337 11.4575 25.5428 9.66665 23.3337 9.66665H15.3337V8.1057ZM10.3337 21.3333C9.78137 21.3333 9.33366 21.781 9.33366 22.3333C9.33366 22.8856 9.78137 23.3333 10.3337 23.3333H10.3337H10.3338H10.3338H10.3339H10.3341H10.3342H10.3344H10.3346H10.3348H10.335H10.3353H10.3356H10.3359H10.3363H10.3366H10.337H10.3374H10.3378H10.3383H10.3388H10.3392H10.3398H10.3403H10.3409H10.3415H10.3421H10.3427H10.3434H10.3441H10.3448H10.3455H10.3463H10.3471H10.3479H10.3487H10.3496H10.3505H10.3514H10.3523H10.3532H10.3542H10.3552H10.3562H10.3573H10.3584H10.3595H10.3606H10.3617H10.3629H10.3641H10.3653H10.3665H10.3678H10.3691H10.3704H10.3718H10.3731H10.3745H10.3759H10.3774H10.3788H10.3803H10.3818H10.3834H10.3849H10.3865H10.3881H10.3898H10.3914H10.3931H10.3948H10.3966H10.3983H10.4001H10.4019H10.4038H10.4056H10.4075H10.4094H10.4114H10.4133H10.4153H10.4174H10.4194H10.4215H10.4235H10.4257H10.4278H10.43H10.4322H10.4344H10.4366H10.4389H10.4412H10.4435H10.4459H10.4482H10.4506H10.4531H10.4555H10.458H10.4605H10.463H10.4656H10.4682H10.4708H10.4734H10.4761H10.4787H10.4815H10.4842H10.487H10.4897H10.4926H10.4954H10.4983H10.5012H10.5041H10.507H10.51H10.513H10.516H10.5191H10.5222H10.5253H10.5284H10.5316H10.5348H10.538H10.5412H10.5445H10.5478H10.5511H10.5544H10.5578H10.5612H10.5647H10.5681H10.5716H10.5751H10.5786H10.5822H10.5858H10.5894H10.5931H10.5967H10.6004H10.6042H10.6079H10.6117H10.6155H10.6193H10.6232H10.6271H10.631H10.635H10.6389H10.6429H10.647H10.651H10.6551H10.6592H10.6634H10.6675H10.6717H10.676H10.6802H10.6845H10.6888H10.6931H10.6975H10.7019H10.7063H10.7108H10.7152H10.7197H10.7243H10.7288H10.7334H10.738H10.7427H10.7473H10.7521H10.7568H10.7615H10.7663H10.7711H10.776H10.7809H10.7858H10.7907H10.7956H10.8006H10.8056H10.8107H10.8158H10.8209H10.826H10.8312H10.8363H10.8416H10.8468H10.8521H10.8574H10.8627H10.8681H10.8735H10.8789H10.8843H10.8898H10.8953H10.9009H10.9064H10.912H10.9177H10.9233H10.929H10.9347H10.9404H10.9462H10.952H10.9578H10.9637H10.9696H10.9755H10.9815H10.9874H10.9934H10.9995H11.0056H11.0116H11.0178H11.0239H11.0301H11.0363H11.0426H11.0489H11.0552H11.0615H11.0679H11.0743H11.0807H11.0871H11.0936H11.1002H11.1067H11.1133H11.1199H11.1265H11.1332H11.1399H11.1466H11.1534H11.1602H11.167H11.1738H11.1807H11.1876H11.1946H11.2016H11.2086H11.2156H11.2227H11.2298H11.2369H11.244H11.2512H11.2584H11.2657H11.273H11.2803H11.2876H11.295H11.3024H11.3099H11.3173H11.3248H11.3324H11.3399H11.3475H11.3551H11.3628H11.3705H11.3782H11.3859H11.3937H11.4015H11.4094H11.4172H11.4252H11.4331H11.4411H11.4491H11.4571H11.4652H11.4733H11.4814H11.4895H11.4977H11.506H11.5142H11.5225H11.5308H11.5392H11.5476H11.556H11.5644H11.5729H11.5814H11.59H11.5985H11.6071H11.6158H11.6244H11.6332H11.6419H11.6507H11.6595H11.6683H11.6772H11.6861H11.695H11.704H11.7129H11.722H11.731H11.7401H11.7493H11.7584H11.7676H11.7768H11.7861H11.7954H11.8047H11.8141H11.8235H11.8329H11.8423H11.8518H11.8613H11.8709H11.8805H11.8901H11.8998H11.9094H11.9192H11.9289H11.9387H11.9485H11.9584H11.9683H11.9782H11.9881H11.9981H12.0081H12.0182H12.0283H12.0384H12.0486H12.0587H12.069H12.0792H12.0895H12.0998H12.1102H12.1206H12.131H12.1415H12.152H12.1625H12.173H12.1836H12.1943H12.2049H12.2156H12.2263H12.2371H12.2479H12.2587H12.2696H12.2805H12.2914H12.3024H12.3134H12.3244H12.3355H12.3466H12.3578H12.3689H12.3802H12.3914H12.4027H12.414H12.4253H12.4367H12.4481H12.4596H12.4711H12.4826H12.4942H12.5058H12.5174H12.529H12.5407H12.5525H12.5642H12.576H12.5879H12.5997H12.6117H12.6236H12.6356H12.6476H12.6596H12.6717H12.6838H12.696H12.7082H12.7204H12.7327H12.7449H12.7573H12.7696H12.782H12.7945H12.807H12.8195H12.832H12.8446H12.8572H12.8699H12.8825H12.8953H12.908H12.9208H12.9336H12.9465H12.9594H12.9723H12.9853H12.9983H13.0114H13.0245H13.0376H13.0507H13.0639H13.0771H13.0904H13.1037H13.117H13.1304H13.1438H13.1573H13.1707H13.1843H13.1978H13.2114H13.225H13.2387H13.2524H13.2661H13.2799H13.2937H13.3076H13.3215H13.3354H13.3493H13.3633H13.3774H13.3914H13.4055H13.4197H13.4338H13.4481H13.4623H13.4766H13.4909H13.5053H13.5197H13.5341H13.5486H13.5631H13.5777H13.5923H13.6069H13.6215H13.6362H13.651H13.6658H13.6806H13.6954H13.7103H13.7252H13.7402H13.7552H13.7702H13.7853H13.8004H13.8156H13.8308H13.846H13.8612H13.8765H13.8919H13.9073H13.9227H13.9381H13.9536H13.9692H13.9847H14.0003H14.0159H14.0315H14.047H14.0625H14.078H14.0934H14.1088H14.1241H14.1394H14.1547H14.1699H14.1851H14.2002H14.2154H14.2304H14.2455H14.2605H14.2754H14.2903H14.3052H14.3201H14.3349H14.3497H14.3644H14.3791H14.3938H14.4084H14.423H14.4375H14.452H14.4665H14.481H14.4954H14.5097H14.524H14.5383H14.5526H14.5668H14.581H14.5951H14.6092H14.6233H14.6373H14.6513H14.6653H14.6792H14.6931H14.7069H14.7207H14.7345H14.7482H14.7619H14.7756H14.7892H14.8028H14.8164H14.8299H14.8434H14.8568H14.8702H14.8836H14.8969H14.9102H14.9235H14.9367H14.9499H14.9631H14.9762H14.9893H15.0023H15.0153H15.0283H15.0412H15.0541H15.067H15.0798H15.0926H15.1054H15.1181H15.1308H15.1434H15.1561H15.1686H15.1812H15.1937H15.2062H15.2186H15.231H15.2434H15.2557H15.268H15.2803H15.2925H15.3047H15.3168H15.3289H15.341H15.3531H15.3651H15.3771H15.389H15.4009H15.4128H15.4246H15.4364H15.4482H15.4599H15.4716H15.4833H15.4949H15.5065H15.518H15.5296H15.5411H15.5525H15.5639H15.5753H15.5867H15.598H15.6093H15.6205H15.6317H15.6429H15.654H15.6651H15.6762H15.6872H15.6982H15.7092H15.7201H15.731H15.7419H15.7527H15.7635H15.7743H15.785H15.7957H15.8064H15.817H15.8276H15.8382H15.8487H15.8592H15.8696H15.8801H15.8905H15.9008H15.9111H15.9214H15.9317H15.9419H15.9521H15.9622H15.9724H15.9825H15.9925H16.0025H16.0125H16.0225H16.0324H16.0423H16.0521H16.0619H16.0717H16.0815H16.0912H16.1009H16.1105H16.1202H16.1298H16.1393H16.1488H16.1583H16.1678H16.1772H16.1866H16.1959H16.2053H16.2146H16.2238H16.233H16.2422H16.2514H16.2605H16.2696H16.2787H16.2877H16.2967H16.3057H16.3146H16.3235H16.3324H16.3412H16.35H16.3588H16.3675H16.3762H16.3849H16.3935H16.4021H16.4107H16.4192H16.4278H16.4362H16.4447H16.4531H16.4615H16.4698H16.4781H16.4864H16.4947H16.5029H16.5111H16.5193H16.5274H16.5355H16.5436H16.5516H16.5596H16.5676H16.5755H16.5834H16.5913H16.5991H16.6069H16.6147H16.6225H16.6302H16.6379H16.6455H16.6531H16.6607H16.6683H16.6758H16.6833H16.6908H16.6982H16.7056H16.713H16.7204H16.7277H16.735H16.7422H16.7494H16.7566H16.7638H16.7709H16.778H16.7851H16.7921H16.7991H16.8061H16.813H16.8199H16.8268H16.8337H16.8405H16.8473H16.854H16.8608H16.8675H16.8741H16.8808H16.8874H16.8939H16.9005H16.907H16.9135H16.92H16.9264H16.9328H16.9391H16.9455H16.9518H16.9581H16.9643H16.9705H16.9767H16.9829H16.989H16.9951H17.0012H17.0072H17.0132H17.0192H17.0251H17.0311H17.0369H17.0428H17.0486H17.0544H17.0602H17.0659H17.0717H17.0773H17.083H17.0886H17.0942H17.0998H17.1053H17.1108H17.1163H17.1218H17.1272H17.1326H17.1379H17.1433H17.1486H17.1538H17.1591H17.1643H17.1695H17.1746H17.1798H17.1849H17.19H17.195H17.2H17.205H17.21H17.2149H17.2198H17.2247H17.2295H17.2343H17.2391H17.2439H17.2486H17.2533H17.258H17.2626H17.2672H17.2718H17.2764H17.2809H17.2854H17.2899H17.2943H17.2988H17.3032H17.3075H17.3119H17.3162H17.3204H17.3247H17.3289H17.3331H17.3373H17.3414H17.3455H17.3496H17.3537H17.3577H17.3617H17.3657H17.3696H17.3735H17.3774H17.3813H17.3851H17.389H17.3927H17.3965H17.4002H17.4039H17.4076H17.4112H17.4149H17.4184H17.422H17.4255H17.4291H17.4325H17.436H17.4394H17.4428H17.4462H17.4495H17.4529H17.4562H17.4594H17.4627H17.4659H17.4691H17.4722H17.4754H17.4785H17.4816H17.4846H17.4876H17.4906H17.4936H17.4966H17.4995H17.5024H17.5052H17.5081H17.5109H17.5137H17.5165H17.5192H17.5219H17.5246H17.5272H17.5299H17.5325H17.5351H17.5376H17.5402H17.5427H17.5451H17.5476H17.55H17.5524H17.5548H17.5571H17.5594H17.5617H17.564H17.5663H17.5685H17.5707H17.5728H17.575H17.5771H17.5792H17.5813H17.5833H17.5853H17.5873H17.5893H17.5912H17.5931H17.595H17.5969H17.5987H17.6005H17.6023H17.6041H17.6058H17.6075H17.6092H17.6109H17.6125H17.6141H17.6157H17.6173H17.6188H17.6203H17.6218H17.6233H17.6247H17.6261H17.6275H17.6289H17.6302H17.6315H17.6328H17.6341H17.6353H17.6366H17.6378H17.6389H17.6401H17.6412H17.6423H17.6434H17.6444H17.6454H17.6464H17.6474H17.6484H17.6493H17.6502H17.6511H17.6519H17.6528H17.6536H17.6543H17.6551H17.6558H17.6566H17.6572H17.6579H17.6586H17.6592H17.6598H17.6603H17.6609H17.6614H17.6619H17.6624H17.6628H17.6633H17.6637H17.664H17.6644H17.6647H17.665H17.6653H17.6656H17.6658H17.6661H17.6663H17.6664H17.6666H17.6667H17.6668H17.6669H17.6669H17.667C18.2193 23.3333 18.667 22.8856 18.667 22.3333C18.667 21.781 18.2193 21.3333 17.667 21.3333H17.6669H17.6669H17.6668H17.6667H17.6666H17.6664H17.6663H17.6661H17.6658H17.6656H17.6653H17.665H17.6647H17.6644H17.664H17.6637H17.6633H17.6628H17.6624H17.6619H17.6614H17.6609H17.6603H17.6598H17.6592H17.6586H17.6579H17.6572H17.6566H17.6558H17.6551H17.6543H17.6536H17.6528H17.6519H17.6511H17.6502H17.6493H17.6484H17.6474H17.6464H17.6454H17.6444H17.6434H17.6423H17.6412H17.6401H17.6389H17.6378H17.6366H17.6353H17.6341H17.6328H17.6315H17.6302H17.6289H17.6275H17.6261H17.6247H17.6233H17.6218H17.6203H17.6188H17.6173H17.6157H17.6141H17.6125H17.6109H17.6092H17.6075H17.6058H17.6041H17.6023H17.6005H17.5987H17.5969H17.595H17.5931H17.5912H17.5893H17.5873H17.5853H17.5833H17.5813H17.5792H17.5771H17.575H17.5728H17.5707H17.5685H17.5663H17.564H17.5617H17.5594H17.5571H17.5548H17.5524H17.55H17.5476H17.5451H17.5427H17.5402H17.5376H17.5351H17.5325H17.5299H17.5272H17.5246H17.5219H17.5192H17.5165H17.5137H17.5109H17.5081H17.5052H17.5024H17.4995H17.4966H17.4936H17.4906H17.4876H17.4846H17.4816H17.4785H17.4754H17.4722H17.4691H17.4659H17.4627H17.4594H17.4562H17.4529H17.4495H17.4462H17.4428H17.4394H17.436H17.4325H17.4291H17.4255H17.422H17.4184H17.4149H17.4112H17.4076H17.4039H17.4002H17.3965H17.3927H17.389H17.3851H17.3813H17.3774H17.3735H17.3696H17.3657H17.3617H17.3577H17.3537H17.3496H17.3455H17.3414H17.3373H17.3331H17.3289H17.3247H17.3204H17.3162H17.3119H17.3075H17.3032H17.2988H17.2943H17.2899H17.2854H17.2809H17.2764H17.2718H17.2672H17.2626H17.258H17.2533H17.2486H17.2439H17.2391H17.2343H17.2295H17.2247H17.2198H17.2149H17.21H17.205H17.2H17.195H17.19H17.1849H17.1798H17.1746H17.1695H17.1643H17.1591H17.1538H17.1486H17.1433H17.1379H17.1326H17.1272H17.1218H17.1163H17.1108H17.1053H17.0998H17.0942H17.0886H17.083H17.0773H17.0717H17.0659H17.0602H17.0544H17.0486H17.0428H17.0369H17.0311H17.0251H17.0192H17.0132H17.0072H17.0012H16.9951H16.989H16.9829H16.9767H16.9705H16.9643H16.9581H16.9518H16.9455H16.9391H16.9328H16.9264H16.92H16.9135H16.907H16.9005H16.8939H16.8874H16.8808H16.8741H16.8675H16.8608H16.854H16.8473H16.8405H16.8337H16.8268H16.8199H16.813H16.8061H16.7991H16.7921H16.7851H16.778H16.7709H16.7638H16.7566H16.7494H16.7422H16.735H16.7277H16.7204H16.713H16.7056H16.6982H16.6908H16.6833H16.6758H16.6683H16.6607H16.6531H16.6455H16.6379H16.6302H16.6225H16.6147H16.6069H16.5991H16.5913H16.5834H16.5755H16.5676H16.5596H16.5516H16.5436H16.5355H16.5274H16.5193H16.5111H16.5029H16.4947H16.4864H16.4781H16.4698H16.4615H16.4531H16.4447H16.4362H16.4278H16.4192H16.4107H16.4021H16.3935H16.3849H16.3762H16.3675H16.3588H16.35H16.3412H16.3324H16.3235H16.3146H16.3057H16.2967H16.2877H16.2787H16.2696H16.2605H16.2514H16.2422H16.233H16.2238H16.2146H16.2053H16.1959H16.1866H16.1772H16.1678H16.1583H16.1488H16.1393H16.1298H16.1202H16.1105H16.1009H16.0912H16.0815H16.0717H16.0619H16.0521H16.0423H16.0324H16.0225H16.0125H16.0025H15.9925H15.9825H15.9724H15.9622H15.9521H15.9419H15.9317H15.9214H15.9111H15.9008H15.8905H15.8801H15.8696H15.8592H15.8487H15.8382H15.8276H15.817H15.8064H15.7957H15.785H15.7743H15.7635H15.7527H15.7419H15.731H15.7201H15.7092H15.6982H15.6872H15.6762H15.6651H15.654H15.6429H15.6317H15.6205H15.6093H15.598H15.5867H15.5753H15.5639H15.5525H15.5411H15.5296H15.518H15.5065H15.4949H15.4833H15.4716H15.4599H15.4482H15.4364H15.4246H15.4128H15.4009H15.389H15.3771H15.3651H15.3531H15.341H15.3289H15.3168H15.3047H15.2925H15.2803H15.268H15.2557H15.2434H15.231H15.2186H15.2062H15.1937H15.1812H15.1686H15.1561H15.1434H15.1308H15.1181H15.1054H15.0926H15.0798H15.067H15.0541H15.0412H15.0283H15.0153H15.0023H14.9893H14.9762H14.9631H14.9499H14.9367H14.9235H14.9102H14.8969H14.8836H14.8702H14.8568H14.8434H14.8299H14.8164H14.8028H14.7892H14.7756H14.7619H14.7482H14.7345H14.7207H14.7069H14.6931H14.6792H14.6653H14.6513H14.6373H14.6233H14.6092H14.5951H14.581H14.5668H14.5526H14.5383H14.524H14.5097H14.4954H14.481H14.4665H14.452H14.4375H14.423H14.4084H14.3938H14.3791H14.3644H14.3497H14.3349H14.3201H14.3052H14.2903H14.2754H14.2605H14.2455H14.2304H14.2154H14.2002H14.1851H14.1699H14.1547H14.1394H14.1241H14.1088H14.0934H14.078H14.0625H14.047H14.0315H14.0159H14.0003H13.9847H13.9692H13.9536H13.9381H13.9227H13.9073H13.8919H13.8765H13.8612H13.846H13.8308H13.8156H13.8004H13.7853H13.7702H13.7552H13.7402H13.7252H13.7103H13.6954H13.6806H13.6658H13.651H13.6362H13.6215H13.6069H13.5923H13.5777H13.5631H13.5486H13.5341H13.5197H13.5053H13.4909H13.4766H13.4623H13.4481H13.4338H13.4197H13.4055H13.3914H13.3774H13.3633H13.3493H13.3354H13.3215H13.3076H13.2937H13.2799H13.2661H13.2524H13.2387H13.225H13.2114H13.1978H13.1843H13.1707H13.1573H13.1438H13.1304H13.117H13.1037H13.0904H13.0771H13.0639H13.0507H13.0376H13.0245H13.0114H12.9983H12.9853H12.9723H12.9594H12.9465H12.9336H12.9208H12.908H12.8953H12.8825H12.8699H12.8572H12.8446H12.832H12.8195H12.807H12.7945H12.782H12.7696H12.7573H12.7449H12.7327H12.7204H12.7082H12.696H12.6838H12.6717H12.6596H12.6476H12.6356H12.6236H12.6117H12.5997H12.5879H12.576H12.5642H12.5525H12.5407H12.529H12.5174H12.5058H12.4942H12.4826H12.4711H12.4596H12.4481H12.4367H12.4253H12.414H12.4027H12.3914H12.3802H12.3689H12.3578H12.3466H12.3355H12.3244H12.3134H12.3024H12.2914H12.2805H12.2696H12.2587H12.2479H12.2371H12.2263H12.2156H12.2049H12.1943H12.1836H12.173H12.1625H12.152H12.1415H12.131H12.1206H12.1102H12.0998H12.0895H12.0792H12.069H12.0587H12.0486H12.0384H12.0283H12.0182H12.0081H11.9981H11.9881H11.9782H11.9683H11.9584H11.9485H11.9387H11.9289H11.9192H11.9094H11.8998H11.8901H11.8805H11.8709H11.8613H11.8518H11.8423H11.8329H11.8235H11.8141H11.8047H11.7954H11.7861H11.7768H11.7676H11.7584H11.7493H11.7401H11.731H11.722H11.7129H11.704H11.695H11.6861H11.6772H11.6683H11.6595H11.6507H11.6419H11.6332H11.6244H11.6158H11.6071H11.5985H11.59H11.5814H11.5729H11.5644H11.556H11.5476H11.5392H11.5308H11.5225H11.5142H11.506H11.4977H11.4895H11.4814H11.4733H11.4652H11.4571H11.4491H11.4411H11.4331H11.4252H11.4172H11.4094H11.4015H11.3937H11.3859H11.3782H11.3705H11.3628H11.3551H11.3475H11.3399H11.3324H11.3248H11.3173H11.3099H11.3024H11.295H11.2876H11.2803H11.273H11.2657H11.2584H11.2512H11.244H11.2369H11.2298H11.2227H11.2156H11.2086H11.2016H11.1946H11.1876H11.1807H11.1738H11.167H11.1602H11.1534H11.1466H11.1399H11.1332H11.1265H11.1199H11.1133H11.1067H11.1002H11.0936H11.0871H11.0807H11.0743H11.0679H11.0615H11.0552H11.0489H11.0426H11.0363H11.0301H11.0239H11.0178H11.0116H11.0056H10.9995H10.9934H10.9874H10.9815H10.9755H10.9696H10.9637H10.9578H10.952H10.9462H10.9404H10.9347H10.929H10.9233H10.9177H10.912H10.9064H10.9009H10.8953H10.8898H10.8843H10.8789H10.8735H10.8681H10.8627H10.8574H10.8521H10.8468H10.8416H10.8363H10.8312H10.826H10.8209H10.8158H10.8107H10.8056H10.8006H10.7956H10.7907H10.7858H10.7809H10.776H10.7711H10.7663H10.7615H10.7568H10.7521H10.7473H10.7427H10.738H10.7334H10.7288H10.7243H10.7197H10.7152H10.7108H10.7063H10.7019H10.6975H10.6931H10.6888H10.6845H10.6802H10.676H10.6717H10.6675H10.6634H10.6592H10.6551H10.651H10.647H10.6429H10.6389H10.635H10.631H10.6271H10.6232H10.6193H10.6155H10.6117H10.6079H10.6042H10.6004H10.5967H10.5931H10.5894H10.5858H10.5822H10.5786H10.5751H10.5716H10.5681H10.5647H10.5612H10.5578H10.5544H10.5511H10.5478H10.5445H10.5412H10.538H10.5348H10.5316H10.5284H10.5253H10.5222H10.5191H10.516H10.513H10.51H10.507H10.5041H10.5012H10.4983H10.4954H10.4926H10.4897H10.487H10.4842H10.4815H10.4787H10.4761H10.4734H10.4708H10.4682H10.4656H10.463H10.4605H10.458H10.4555H10.4531H10.4506H10.4482H10.4459H10.4435H10.4412H10.4389H10.4366H10.4344H10.4322H10.43H10.4278H10.4257H10.4235H10.4215H10.4194H10.4174H10.4153H10.4133H10.4114H10.4094H10.4075H10.4056H10.4038H10.4019H10.4001H10.3983H10.3966H10.3948H10.3931H10.3914H10.3898H10.3881H10.3865H10.3849H10.3834H10.3818H10.3803H10.3788H10.3774H10.3759H10.3745H10.3731H10.3718H10.3704H10.3691H10.3678H10.3665H10.3653H10.3641H10.3629H10.3617H10.3606H10.3595H10.3584H10.3573H10.3562H10.3552H10.3542H10.3532H10.3523H10.3514H10.3505H10.3496H10.3487H10.3479H10.3471H10.3463H10.3455H10.3448H10.3441H10.3434H10.3427H10.3421H10.3415H10.3409H10.3403H10.3398H10.3392H10.3388H10.3383H10.3378H10.3374H10.337H10.3366H10.3363H10.3359H10.3356H10.3353H10.335H10.3348H10.3346H10.3344H10.3342H10.3341H10.3339H10.3338H10.3338H10.3337H10.3337ZM20.0003 15.6666C20.0003 16.7712 19.1049 17.6666 18.0003 17.6666C16.8958 17.6666 16.0003 16.7712 16.0003 15.6666C16.0003 14.5621 16.8958 13.6666 18.0003 13.6666C19.1049 13.6666 20.0003 14.5621 20.0003 15.6666ZM10.0003 17.6666C11.1049 17.6666 12.0003 16.7712 12.0003 15.6666C12.0003 14.5621 11.1049 13.6666 10.0003 13.6666C8.89576 13.6666 8.00033 14.5621 8.00033 15.6666C8.00033 16.7712 8.89576 17.6666 10.0003 17.6666Z" fill="#DBDEFF"/>
</svg>
