<svg width="32" height="32" viewBox="0 0 32 32" fill="none" xmlns="http://www.w3.org/2000/svg">
<g id="24/Bold/monet-24">
<path id="Shape" fill-rule="evenodd" clip-rule="evenodd" d="M15.9997 30.6667C24.0998 30.6667 30.6663 24.1002 30.6663 16C30.6663 7.89983 24.0998 1.33334 15.9997 1.33334C7.8995 1.33334 1.33301 7.89983 1.33301 16C1.33301 24.1002 7.8995 30.6667 15.9997 30.6667ZM17.333 8.00001C17.333 7.26363 16.7361 6.66668 15.9997 6.66668C15.2633 6.66668 14.6663 7.26363 14.6663 8.00001V8.7807C12.7847 9.21597 11.333 10.851 11.333 12.8811C11.333 14.9017 12.7929 16.589 14.7521 17.0004L16.6085 17.3903C17.4577 17.5686 17.9997 18.2688 17.9997 19.0081C17.9997 19.8734 17.2531 20.6667 16.2165 20.6667H15.9997C15.0315 20.6667 14.2683 20.0346 14.0592 19.2547C13.8685 18.5435 13.1373 18.1215 12.4261 18.3122C11.7148 18.5029 11.2928 19.234 11.4835 19.9453C11.8999 21.4984 13.1256 22.6992 14.6663 23.1451V24C14.6663 24.7364 15.2633 25.3333 15.9997 25.3333C16.7361 25.3333 17.333 24.7364 17.333 24V23.1949C19.2222 22.7178 20.6663 21.0586 20.6663 19.0081C20.6663 16.9355 19.1687 15.2031 17.1565 14.7805L15.3001 14.3907C14.5038 14.2235 13.9997 13.5683 13.9997 12.8811C13.9997 12.0771 14.6945 11.3333 15.6674 11.3333H15.9997C16.9678 11.3333 17.7311 11.9654 17.9401 12.7453C18.1308 13.4566 18.862 13.8786 19.5733 13.6879C20.2845 13.4972 20.7065 12.766 20.5158 12.0547C20.0994 10.5016 18.8738 9.30086 17.333 8.85494V8.00001Z" fill="#36BED9"/>
</g>
</svg>
