<svg width="32" height="32" viewBox="0 0 32 32" fill="none" xmlns="http://www.w3.org/2000/svg">
<g id="24/Bold/thumbs-up-24">
<path id="Vector" d="M15.0392 12.3139L15.1118 12.459L15.2266 12.5738C15.2294 12.5766 15.2325 12.5798 15.236 12.5833C15.3277 12.676 15.6483 13 16.2003 13H22.3337C22.9299 13 23.4552 13.2225 23.857 13.669C24.2632 14.1203 24.4314 14.688 24.3453 15.2479L24.3442 15.255L24.3432 15.262L23.2108 23.3892C22.9462 25.1178 21.5503 26.3333 19.867 26.3333H13.667C10.3464 26.3333 7.66699 23.6415 7.66699 20.4V16C7.66699 14.659 8.31374 13.2412 9.55665 12.0575L9.56548 12.0491L9.5741 12.0404C10.4737 11.1408 11.989 9.13666 13.2411 7.42334C13.8781 6.55156 14.4643 5.73085 14.8947 5.12494C15.0381 4.92313 15.165 4.74403 15.2701 4.59557C15.2916 4.56529 15.3121 4.53629 15.3317 4.50863C15.7902 4.72492 16.3337 5.22276 16.3337 6.19999C16.3337 6.55076 16.2872 6.92526 16.1022 7.60354L16.0932 7.63677L16.0864 7.67054C15.8345 8.93033 15.5243 9.92286 15.0266 11.0453C14.8319 11.4535 14.8361 11.9076 15.0392 12.3139Z" fill="#91FF8E" stroke="#91FF8E" stroke-width="2"/>
</g>
</svg>
