<svg width="29" height="29" viewBox="0 0 29 29" fill="none" xmlns="http://www.w3.org/2000/svg">
<path id="Shape" fill-rule="evenodd" clip-rule="evenodd" d="M11.2188 1.52076C12.0357 2.74617 11.7046 4.40182 10.4792 5.21876L9 6.20488V7.6667C9 10.9804 12.353 13.6667 15.6667 13.6667H23C24.6422 13.6667 26.2002 14.3412 27.2657 15.4806C28.358 16.6486 28.9409 18.3344 28.4586 20.143C27.7922 22.6422 26.4837 24.743 24.4624 26.1997C22.4547 27.6467 19.9174 28.3334 17 28.3334C14.7294 28.3334 12.6508 27.8079 10.8385 26.7014C9.02992 25.5971 7.59508 23.9806 6.50451 21.9623C4.44767 18.1558 3.54865 12.8019 3.62143 6.17479L2.18747 5.21882C0.962059 4.40188 0.630929 2.74623 1.44787 1.52082C2.26481 0.295408 3.92046 -0.0357218 5.14587 0.781218L6.33328 1.57282L7.52078 0.781157C8.74619 -0.0357828 10.4018 0.295347 11.2188 1.52076ZM4.64328 19.1528C3.48088 18.0133 2.5955 16.5922 2.0975 15L0.508672 16.8158C-0.902551 18.4286 0.867749 20.8308 2.8261 19.9604L4.64328 19.1528ZM22.3333 20.3333C23.4379 20.3333 24.3333 19.4379 24.3333 18.3333C24.3333 17.2288 23.4379 16.3333 22.3333 16.3333C21.2288 16.3333 20.3333 17.2288 20.3333 18.3333C20.3333 19.4379 21.2288 20.3333 22.3333 20.3333Z" fill="#A8F230"/>
</svg>
